<svg width="35" height="36" viewBox="0 0 35 36" fill="none" xmlns="http://www.w3.org/2000/svg">
<g clip-path="url(#clip0_611:840)">
<path d="M10.7106 28.6283H9.18797V27.2849C9.18797 26.676 8.69264 26.1807 8.08377 26.1807H5.63042C5.02155 26.1807 4.52622 26.676 4.52622 27.2849V28.6283H3.00365C2.57682 28.6283 2.23071 28.9744 2.23071 29.4012V34.7268C2.23071 35.1537 2.57682 35.4997 3.00365 35.4997H10.7105C11.1374 35.4997 11.4835 35.1536 11.4835 34.7268V29.4012C11.4835 28.9743 11.1374 28.6283 10.7106 28.6283ZM7.98731 28.6283H7.98725H5.72701V27.3814H7.98731V28.6283Z" fill="#73492A"/>
<path d="M17.7623 6.26145C19.3533 6.26145 20.643 4.97171 20.643 3.38073C20.643 1.78975 19.3533 0.5 17.7623 0.5C16.1713 0.5 14.8816 1.78975 14.8816 3.38073C14.8816 4.97171 16.1713 6.26145 17.7623 6.26145Z" fill="#73492A"/>
<path d="M31.9352 22.7963H31.3155V19.1045H31.8242C31.9761 19.1045 32.0992 18.9814 32.0992 18.8296V17.9132C32.0992 17.7614 31.9761 17.6382 31.8242 17.6382H28.2125C28.4169 17.0447 28.1988 16.3671 27.6461 16.0149L24.7933 14.1969L24.7707 10.4525C24.7616 8.64784 23.2861 7.17969 21.4814 7.17969C20.709 7.17969 14.7944 7.17969 14.0194 7.17969C12.2147 7.17969 10.7392 8.64784 10.7301 10.4525L10.6787 20.664C10.6748 21.4316 11.294 22.0571 12.0616 22.0609C12.0641 22.0609 12.0664 22.0609 12.0687 22.0609C12.8331 22.0609 13.4547 21.4431 13.4586 20.678L13.5099 10.4665C13.5106 10.3184 13.631 10.199 13.779 10.1993C13.927 10.1997 14.0466 10.3198 14.0466 10.4677L14.0472 33.832C14.0472 34.7532 14.794 35.5 15.7152 35.5C16.6364 35.5 17.3831 34.7532 17.3831 33.832V20.4999H18.1032V33.8319C18.1032 34.7531 18.85 35.4999 19.7712 35.4999C20.6924 35.4999 21.4392 34.7531 21.4392 33.8319C21.4392 12.0653 21.4096 23.9944 21.4089 10.4772C21.4089 10.3184 21.5362 10.1889 21.695 10.1863C21.8538 10.1837 21.9855 10.3089 21.9906 10.4676C21.9906 10.4676 21.9906 10.4677 21.9906 10.4678L22.0178 14.9705C22.0206 15.4424 22.2627 15.8807 22.6607 16.1343L25.8039 18.1373V18.8295C25.8039 18.9813 25.927 19.1044 26.0788 19.1044H26.5876V22.7962H25.9678C25.5072 22.7962 25.1339 23.1695 25.1339 23.6301V33.1963C25.1339 33.6569 25.5073 34.0302 25.9678 34.0302H26.5876V34.931C26.5876 35.2451 26.8423 35.4998 27.1564 35.4998C27.4705 35.4998 27.7252 35.2451 27.7252 34.931V34.0302H30.1777V34.931C30.1777 35.2451 30.4324 35.4998 30.7465 35.4998C31.0607 35.4998 31.3154 35.2451 31.3154 34.931V34.0302H31.935C32.3956 34.0302 32.769 33.6569 32.769 33.1963V23.6301C32.7691 23.1696 32.3959 22.7963 31.9352 22.7963ZM30.1779 22.7963H27.7256V19.1045H30.1779V22.7963Z" fill="#73492A"/>
</g>
<defs>
<clipPath id="clip0_611:840">
<rect width="35" height="35" fill="white" transform="translate(0 0.5)"/>
</clipPath>
</defs>
</svg>
