<svg width="31" height="30" viewBox="0 0 31 30" fill="none" xmlns="http://www.w3.org/2000/svg">
<g clip-path="url(#clip0)">
<path d="M25.6251 15.7416C25.489 15.5858 25.3735 15.4158 25.2784 15.2363C25.2316 20.0606 21.2931 23.9713 16.4579 23.9713C11.5937 23.9713 7.63632 20.0139 7.63632 15.1497C7.63632 10.2855 11.5937 6.32808 16.4579 6.32808C20.6424 6.32808 24.1556 9.25685 25.0558 13.172L25.8547 7.23328L25.8727 7.09975C23.5979 4.44313 20.2214 2.75647 16.4579 2.75647C13.5217 2.75647 10.8212 3.7835 8.69553 5.49635V5.62457V5.73811V8.25351V8.35336C8.69553 10.0335 7.82471 11.5675 6.44678 12.444V22.2763V22.4457C8.70292 25.533 12.3498 27.5427 16.4579 27.5427C20.7747 27.5427 24.5825 25.3236 26.8021 21.9668V21.7852V16.5187C26.3518 16.3722 25.9437 16.106 25.6251 15.7416Z" fill="#73492A"/>
<path d="M16.4579 7.82739C12.4204 7.82739 9.1355 11.1122 9.1355 15.1498C9.1355 19.1875 12.4203 22.4722 16.4579 22.4722C20.4956 22.4722 23.7803 19.1875 23.7803 15.1498C23.7803 11.1122 20.4955 7.82739 16.4579 7.82739Z" fill="#73492A"/>
<path d="M30.4665 1.44676C30.4665 0.808716 29.9493 0.291504 29.3113 0.291504C28.7328 0.291504 28.2435 0.719366 28.1664 1.29275L26.4784 13.8407C26.4339 14.171 26.5343 14.5043 26.7536 14.7552C26.973 15.006 27.2899 15.1498 27.6232 15.1498H28.301V28.609C28.301 29.2162 28.7933 29.7084 29.4004 29.7084C30.0076 29.7084 30.4998 29.2162 30.4998 28.609L30.4665 1.44676Z" fill="#73492A"/>
<path d="M7.19627 1.69074C7.19627 1.27668 6.86076 0.941162 6.44669 0.941162C6.03262 0.941162 5.69711 1.27668 5.69711 1.69074V5.83834H4.59772V1.69074C4.59772 1.27668 4.26221 0.941162 3.84814 0.941162C3.43407 0.941162 3.09855 1.27668 3.09855 1.69074V5.83834H1.99917V1.69074C1.99917 1.27668 1.66365 0.941162 1.24958 0.941162C0.835513 0.941162 0.5 1.27668 0.5 1.69074V8.45358C0.5 9.91467 1.44118 11.1594 2.74875 11.6154V28.6091C2.74875 29.2162 3.24097 29.7085 3.84814 29.7085C4.4553 29.7085 4.94752 29.2162 4.94752 28.6091V11.6154C6.2551 11.1594 7.19627 9.91467 7.19627 8.45358V1.69074Z" fill="#73492A"/>
</g>
<defs>
<clipPath id="clip0">
<rect width="30" height="30" fill="white" transform="translate(0.5)"/>
</clipPath>
</defs>
</svg>
