<svg width="31" height="30" viewBox="0 0 31 30" fill="none" xmlns="http://www.w3.org/2000/svg">
<g clip-path="url(#clip0)">
<path d="M7.58206 3.82141C5.66569 3.82141 4.10669 5.38047 4.10669 7.29678C4.10669 9.21309 5.66575 10.7721 7.58206 10.7721C9.49837 10.7721 11.0574 9.21315 11.0574 7.29678C11.0574 5.38041 9.49843 3.82141 7.58206 3.82141Z" fill="#73492A"/>
<path d="M22.1857 27.1269L19.0742 18.3515H13.0448L10.2839 11.7985H5.77813L2.3423 21.1433C2.20344 21.521 2.17455 21.9242 2.24938 22.3086H0.5V24.0664H9.54922H10.0784H15.3785L18.3088 28.954C18.7084 29.6206 19.4217 29.9999 20.159 29.9999C20.4505 29.9999 20.7458 29.9406 21.0269 29.8163C22.0508 29.3635 22.5598 28.1822 22.1857 27.1269ZM6.68428 22.3086L7.73094 20.6306L8.61898 22.3086H6.68428Z" fill="#73492A"/>
<path d="M21.5766 6.60136C21.5766 5.48737 21.1261 4.87606 20.7971 4.4297C20.5248 4.0602 20.3604 3.83714 20.3604 3.30089C20.3604 2.76458 20.5248 2.54157 20.7971 2.17196C21.126 1.7256 21.5766 1.11429 21.5766 0.000244141H19.8188C19.8188 0.536494 19.6544 0.759561 19.3821 1.12911C19.0531 1.57548 18.6025 2.18679 18.6025 3.30083C18.6025 4.41481 19.0531 5.02612 19.3821 5.47249C19.6544 5.84198 19.8188 6.06505 19.8188 6.6013C19.8188 7.13772 19.6544 7.36079 19.382 7.7304C19.0531 8.17694 18.6025 8.78831 18.6025 9.90241C18.6025 11.0165 19.053 11.6279 19.382 12.0742C19.6544 12.4439 19.8188 12.667 19.8188 13.2034H21.5766C21.5766 12.0892 21.1261 11.4779 20.7971 11.0315C20.5248 10.6618 20.3604 10.4388 20.3604 9.90235C20.3604 9.36593 20.5248 9.14292 20.7971 8.77325C21.1261 8.32683 21.5766 7.71546 21.5766 6.60136Z" fill="#73492A"/>
<path d="M26.0382 6.60118C26.0382 5.4872 25.5877 4.87589 25.2587 4.42952C24.9864 4.06003 24.822 3.83696 24.822 3.30071C24.822 2.7644 24.9864 2.5414 25.2588 2.17179C25.5877 1.7256 26.0382 1.11429 26.0382 0.000244141H24.2804C24.2804 0.536494 24.116 0.759561 23.8437 1.12911C23.5148 1.57548 23.0642 2.18679 23.0642 3.30083C23.0642 4.41481 23.5147 5.02612 23.8437 5.47249C24.116 5.84198 24.2804 6.06505 24.2804 6.6013C24.2804 7.13773 24.116 7.36079 23.8437 7.7304C23.5147 8.17683 23.0642 8.78819 23.0642 9.90224C23.0642 11.0163 23.5147 11.6277 23.8437 12.0741C24.116 12.4437 24.2804 12.6668 24.2804 13.2032H26.0382C26.0382 12.0891 25.5878 11.4777 25.2588 11.0313C24.9864 10.6617 24.822 10.4386 24.822 9.90218C24.822 9.36575 24.9864 9.14275 25.2588 8.77308C25.5877 8.32665 26.0382 7.71528 26.0382 6.60118Z" fill="#73492A"/>
<path d="M30.4999 6.60136C30.4999 5.48737 30.0494 4.87606 29.7204 4.4297C29.4481 4.06021 29.2837 3.83714 29.2837 3.30089C29.2837 2.76458 29.4481 2.54157 29.7204 2.17196C30.0494 1.7256 30.4999 1.11429 30.4999 0.000244141H28.7421C28.7421 0.536494 28.5777 0.759561 28.3054 1.12911C27.9765 1.57548 27.5259 2.18679 27.5259 3.30083C27.5259 4.41481 27.9764 5.02612 28.3054 5.47249C28.5777 5.84198 28.7421 6.06505 28.7421 6.6013C28.7421 7.13773 28.5777 7.36079 28.3054 7.7304C27.9764 8.17683 27.5259 8.78819 27.5259 9.90224C27.5259 11.0163 27.9763 11.6277 28.3054 12.0741C28.5777 12.4437 28.7421 12.6668 28.7421 13.2032H30.4999C30.4999 12.0891 30.0495 11.4777 29.7205 11.0313C29.4481 10.6617 29.2837 10.4386 29.2837 9.90218C29.2837 9.36575 29.4481 9.14275 29.7205 8.77308C30.0495 8.32683 30.4999 7.71546 30.4999 6.60136Z" fill="#73492A"/>
</g>
<defs>
<clipPath id="clip0">
<rect width="30" height="30" fill="white" transform="translate(0.5)"/>
</clipPath>
</defs>
</svg>
