<svg width="31" height="30" viewBox="0 0 31 30" fill="none" xmlns="http://www.w3.org/2000/svg">
<g clip-path="url(#clip0)">
<path d="M23.4992 17.2542C23.7694 17.5269 23.8342 17.9476 23.6491 18.2841C23.013 19.4403 21.42 19.9526 20.217 19.0614C17.4092 16.9796 13.5598 17.0031 10.7837 19.0614C9.58231 19.9515 7.98815 19.4413 7.35161 18.2842C7.16652 17.9478 7.23108 17.527 7.50143 17.2543C11.9058 12.8097 19.09 12.8044 23.4992 17.2542Z" fill="#73492A"/>
<path d="M24.6401 15.9334C19.5062 10.8887 11.4224 10.9629 6.36062 15.9333C6.14066 16.1493 5.82515 16.2386 5.52644 16.1626C4.60052 15.9269 3.90415 15.1343 3.81592 14.1761C3.79166 13.913 3.88898 13.6527 4.07817 13.4682C10.4422 7.26336 20.5658 7.27086 26.9224 13.4682C27.1115 13.6526 27.2089 13.9129 27.1847 14.1759C27.0963 15.1329 26.4014 15.9266 25.4745 16.1625C25.1757 16.2386 24.86 16.1494 24.6401 15.9334Z" fill="#73492A"/>
<path d="M29.8261 12.2981C29.7498 12.3736 29.6709 12.4426 29.5901 12.5055C29.2426 12.7756 28.7449 12.7373 28.4358 12.424C21.32 5.21159 9.68765 5.20837 2.56184 12.4275C2.2448 12.7487 1.73405 12.776 1.38438 12.4907C1.32748 12.4442 1.27235 12.3947 1.21927 12.3421C0.172229 11.3091 0.331013 9.79453 1.29075 8.97541C9.45259 2.00885 21.5448 2.00592 29.7101 8.97541C30.7179 9.83548 30.7665 11.3665 29.8261 12.2981Z" fill="#73492A"/>
<path d="M15.5004 26.2506C16.7948 26.2506 17.8441 25.2013 17.8441 23.9069C17.8441 22.6125 16.7948 21.5632 15.5004 21.5632C14.206 21.5632 13.1567 22.6125 13.1567 23.9069C13.1567 25.2013 14.206 26.2506 15.5004 26.2506Z" fill="#73492A"/>
</g>
<defs>
<clipPath id="clip0">
<rect width="30" height="30" fill="white" transform="translate(0.5)"/>
</clipPath>
</defs>
</svg>
