<svg width="31" height="30" viewBox="0 0 31 30" fill="none" xmlns="http://www.w3.org/2000/svg">
<g clip-path="url(#clip0)">
<path d="M17.4062 7.32422C19.0217 7.32422 20.3359 6.00998 20.3359 4.39453C20.3359 2.77908 19.0217 1.46484 17.4062 1.46484C15.7908 1.46484 14.4766 2.77908 14.4766 4.39453C14.4766 6.00998 15.7908 7.32422 17.4062 7.32422Z" fill="#73492A"/>
<path d="M19.2764 16.4613L23.1564 23.166H28.8967L24.5125 15.5721L20.9337 17.2281L19.2764 16.4613Z" fill="#73492A"/>
<path d="M16.0383 14.3756L11.6772 16.3934L7.25703 14.3484L2.16602 23.1661H21.1254L16.0383 14.3756Z" fill="#73492A"/>
<path d="M15.1542 12.8478L11.6347 6.76599L8.1394 12.8197L11.6772 14.4566L15.1542 12.8478Z" fill="#73492A"/>
<path d="M0.5 24.9238H30.5V28.5351H0.5V24.9238Z" fill="#73492A"/>
<path d="M20.9335 15.2914L23.63 14.0437L20.9335 9.37341L18.2371 14.0437L20.9335 15.2914Z" fill="#73492A"/>
</g>
<defs>
<clipPath id="clip0">
<rect width="30" height="30" fill="white" transform="translate(0.5)"/>
</clipPath>
</defs>
</svg>
