<svg width="31" height="30" viewBox="0 0 31 30" fill="none" xmlns="http://www.w3.org/2000/svg">
<g clip-path="url(#clip0)">
<path d="M22.529 22.6875H7.35484V28.1102C7.35484 28.1369 7.3537 28.1635 7.35278 28.19H22.5311C22.5302 28.1635 22.529 28.1369 22.529 28.1102V22.6875Z" fill="#73492A"/>
<path d="M1.3773 8.91129H17.3954C17.8799 8.91129 18.2727 8.51852 18.2727 8.03398V2.10777C18.2727 1.62323 17.8799 1.23047 17.3954 1.23047H1.3773C0.892761 1.23047 0.5 1.62323 0.5 2.10777V8.03398C0.5 8.51852 0.892761 8.91129 1.3773 8.91129Z" fill="#73492A"/>
<path d="M26.893 14.4134V17.185H27.3917V10.0658H29.6226C29.8916 10.0658 30.1456 9.94245 30.312 9.73119C30.4784 9.5197 30.5386 9.24367 30.4754 8.98229L29.1337 3.43671C29.0385 3.04303 28.6863 2.76562 28.2811 2.76562H24.7477C24.3428 2.76562 23.9903 3.04303 23.8951 3.43671L22.5534 8.98229C22.4902 9.24367 22.5504 9.5197 22.7168 9.73119C22.8832 9.94245 23.1372 10.0658 23.4062 10.0658H25.6371V12.1708C26.3899 12.6346 26.893 13.4663 26.893 14.4134Z" fill="#73492A"/>
<path d="M22.529 20.9327V19.6045C22.529 18.2703 23.6144 17.185 24.9485 17.185H25.1383V14.4134C25.1383 13.9296 24.7448 13.5361 24.261 13.5361H5.62267C5.13904 13.5361 4.74536 13.9296 4.74536 14.4134V17.185H4.9351C6.26926 17.185 7.35461 18.2703 7.35461 19.6045V20.9327H22.529Z" fill="#73492A"/>
<path d="M5.60002 19.6044C5.60002 19.2379 5.30179 18.9395 4.93512 18.9395H1.80333C1.43666 18.9395 1.13843 19.2379 1.13843 19.6044V28.1101C1.13843 28.4767 1.43666 28.775 1.80333 28.775H4.93512C5.30179 28.775 5.60002 28.4767 5.60002 28.1101V19.6044Z" fill="#73492A"/>
<path d="M28.7453 28.1101V19.6044C28.7453 19.2379 28.4468 18.9395 28.0801 18.9395H24.9483C24.5817 18.9395 24.2834 19.2379 24.2834 19.6044V28.1101C24.2834 28.4767 24.5817 28.775 24.9483 28.775H28.0801C28.4468 28.775 28.7453 28.4767 28.7453 28.1101Z" fill="#73492A"/>
</g>
<defs>
<clipPath id="clip0">
<rect width="30" height="30" fill="white" transform="translate(0.5)"/>
</clipPath>
</defs>
</svg>
