<svg width="31" height="30" viewBox="0 0 31 30" fill="none" xmlns="http://www.w3.org/2000/svg">
<g clip-path="url(#clip0)">
<path d="M23.8167 17.3192C26.5116 17.3192 28.6962 15.1346 28.6962 12.4398C28.6962 9.74491 26.5116 7.5603 23.8167 7.5603C21.1219 7.5603 18.9373 9.74491 18.9373 12.4398C18.9373 15.1346 21.1219 17.3192 23.8167 17.3192Z" fill="#73492A"/>
<path d="M13.3059 13.3505L7.19613 17.7273C7.46062 17.6731 7.75142 17.6398 8.07587 17.6398C9.54022 17.6398 10.3519 18.2896 10.889 18.7196C11.2825 19.0348 11.4151 19.1409 11.8256 19.1409C12.2361 19.1409 12.3687 19.0347 12.7623 18.7196C13.2993 18.2896 14.111 17.6398 15.5754 17.6398C17.0397 17.6398 17.8514 18.2896 18.3886 18.7196C18.7822 19.0348 18.9149 19.1409 19.3254 19.1409C19.7359 19.1409 19.8686 19.0347 20.2621 18.7196C20.4411 18.5763 20.6516 18.4087 20.9057 18.2487L16.6335 11.0295L10.7962 6.67261L4.12742 8.56426L3.28857 12.412L10.2236 11.0499L13.3059 13.3505Z" fill="#73492A"/>
<path d="M27.6866 19.904C27.293 20.2192 27.1602 20.3253 26.7495 20.3253C26.3389 20.3253 26.2062 20.2191 25.8125 19.904C25.2754 19.474 24.4636 18.8242 22.9992 18.8242C21.5347 18.8242 20.7231 19.474 20.186 19.904C19.7925 20.2192 19.6598 20.3253 19.2493 20.3253C18.8386 20.3253 18.7062 20.2191 18.3125 19.904C17.7754 19.474 16.9637 18.8242 15.4993 18.8242C14.0349 18.8242 13.2233 19.474 12.6861 19.904C12.2926 20.2192 12.16 20.3253 11.7495 20.3253C11.3389 20.3253 11.2064 20.2191 10.8129 19.904C10.2758 19.474 9.46411 18.8242 7.99976 18.8242C6.53541 18.8242 5.7237 19.474 5.18657 19.904C4.79299 20.2192 4.66041 20.3253 4.24982 20.3253C3.83929 20.3253 3.70671 20.2191 3.31313 19.904C2.77606 19.474 1.96435 18.8242 0.5 18.8242V21.8264C0.910528 21.8264 1.04311 21.9326 1.43669 22.2476C1.97376 22.6777 2.78547 23.3275 4.24982 23.3275C5.71423 23.3275 6.52588 22.6777 7.06301 22.2477C7.45653 21.9325 7.58917 21.8264 7.99976 21.8264C8.41029 21.8264 8.54287 21.9326 8.93639 22.2476C9.47346 22.6777 10.2852 23.3275 11.7495 23.3275C13.2139 23.3275 14.0255 22.6777 14.5627 22.2476C14.9562 21.9325 15.0888 21.8264 15.4993 21.8264C15.91 21.8264 16.0425 21.9326 16.4361 22.2477C16.9732 22.6777 17.7849 23.3275 19.2494 23.3275C20.7136 23.3275 21.5253 22.6777 22.0625 22.2476C22.4561 21.9325 22.5886 21.8264 22.9993 21.8264C23.4099 21.8264 23.5426 21.9327 23.9362 22.2477C24.4733 22.6777 25.2851 23.3275 26.7496 23.3275C28.2142 23.3275 29.0258 22.6777 29.563 22.2477C29.9567 21.9325 30.0894 21.8264 30.5 21.8264V18.8242C29.0355 18.8242 28.2238 19.474 27.6866 19.904Z" fill="#73492A"/>
</g>
<defs>
<clipPath id="clip0">
<rect width="29.9999" height="30" fill="white" transform="translate(0.5)"/>
</clipPath>
</defs>
</svg>
