<svg width="35" height="35" viewBox="0 0 35 35" fill="none" xmlns="http://www.w3.org/2000/svg">
<path d="M24.7917 11.667C23.9878 11.667 23.3334 11.0126 23.3334 10.2087C23.3334 8.60012 22.0253 7.29199 20.4167 7.29199H18.2292C17.8261 7.29199 17.5 7.61813 17.5 8.02118C17.5 8.42423 17.8261 8.75037 18.2292 8.75037H20.4167C21.2206 8.75037 21.875 9.40478 21.875 10.2087C21.875 11.8172 23.1831 13.1253 24.7917 13.1253C25.5956 13.1253 26.25 13.7797 26.25 14.5836V16.7711C26.25 17.1742 26.5761 17.5003 26.9792 17.5003C27.3822 17.5003 27.7084 17.1742 27.7084 16.7711V14.5836C27.7083 12.975 26.4003 11.667 24.7917 11.667Z" fill="#73492A"/>
<path d="M24.0626 16.0414H22.6043C22.202 16.0414 21.8751 15.7146 21.8751 15.3122C21.8751 14.1059 20.8938 13.1247 19.6876 13.1247C19.2853 13.1247 18.9584 12.7979 18.9584 12.3955V10.9372C18.9584 10.5342 18.6322 10.208 18.2292 10.208C17.8261 10.208 17.5 10.5342 17.5 10.9372V12.3955C17.5 13.6018 18.4812 14.583 19.6875 14.583C20.0898 14.583 20.4167 14.9098 20.4167 15.3122C20.4167 16.5185 21.3979 17.4997 22.6042 17.4997H24.0626C24.4656 17.4997 24.7918 17.1736 24.7918 16.7705C24.7918 16.3675 24.4656 16.0414 24.0626 16.0414Z" fill="#73492A"/>
<path d="M17.5 0C7.85066 0 0 7.85066 0 17.5C0 27.1493 7.85066 35 17.5 35C27.1493 35 35 27.1493 35 17.5C35 7.85066 27.1493 0 17.5 0ZM17.5 32.0833C9.45854 32.0833 2.91669 25.5415 2.91669 17.5C2.91669 14.0033 4.1557 10.7922 6.21496 8.27709L16.8962 18.9583H8.02081C7.61776 18.9583 7.29162 19.2845 7.29162 19.6875V22.6042C7.29162 23.0072 7.61776 23.3334 8.02081 23.3334H21.2711L26.7228 28.7851C24.2078 30.8443 20.9967 32.0833 17.5 32.0833ZM28.7851 26.7229L25.3955 23.3333H26.9792C27.3822 23.3333 27.7084 23.0072 27.7084 22.6041V19.6875C27.7084 19.2845 27.3822 18.9583 26.9792 18.9583H21.0205L8.27709 6.21489C10.7922 4.1557 14.0033 2.91669 17.5 2.91669C25.5415 2.91669 32.0833 9.45854 32.0833 17.5C32.0833 20.9967 30.8443 24.2078 28.7851 26.7229ZM24.7917 21.875V20.4167H26.25V21.875H24.7917Z" fill="#73492A"/>
</svg>
