<svg width="20" height="14" viewBox="0 0 20 14" fill="none" xmlns="http://www.w3.org/2000/svg">
<path d="M19.4 2.7001C19.2 1.9001 18.5 1.2001 17.7 1.0001C16.2 0.600099 10.3 0.600098 10.3 0.600098C10.3 0.600098 4.39998 0.600099 2.89998 1.0001C2.09998 1.2001 1.39997 1.9001 1.19997 2.7001C0.799967 5.3001 0.599967 9.30009 1.19997 11.8001C1.39997 12.6001 2.09998 13.3001 2.89998 13.5001C4.39998 13.9001 10.3 13.9001 10.3 13.9001C10.3 13.9001 16.2 13.9001 17.7 13.5001C18.5 13.3001 19.2 12.6001 19.4 11.8001C19.9 9.20009 20 5.2001 19.4 2.7001ZM8.39998 10.1001V4.40009L13.3 7.30009L8.39998 10.1001Z" fill="#73492A"/>
</svg>
