<svg width="42" height="41" viewBox="0 0 42 41" fill="none" xmlns="http://www.w3.org/2000/svg">
<path d="M20.9999 40.4C9.89994 40.4 0.799927 31.3 0.799927 20.2C0.799927 9.1 9.89994 0 20.9999 0C32.0999 0 41.1999 9.1 41.1999 20.2C41.1999 31.3 32.0999 40.4 20.9999 40.4Z" fill="white"/>
<path d="M21 11.2998C23.4 11.2998 23.8 11.2998 24.7 11.3998C25.7 11.3998 26.3 11.5998 26.9 11.7998C27.5 11.9998 28 12.3998 28.5 12.7998C29 13.1998 29.3 13.7998 29.5 14.3998C29.7 14.9998 29.9 15.5998 29.9 16.5998C29.9 17.5998 30 17.8998 30 20.2998C30 22.7998 30 23.0998 29.9 23.9998C29.9 24.9998 29.7 25.5998 29.5 26.1998C29.3 26.7998 28.9 27.2998 28.5 27.7998C28 28.2998 27.5 28.5998 26.9 28.7998C26.3 28.9998 25.7 29.1998 24.7 29.1998C23.7 29.1998 23.4 29.2998 21 29.2998C18.6 29.2998 18.2 29.2998 17.3 29.1998C16.3 29.1998 15.7 28.9998 15.1 28.7998C14.5 28.5998 14 28.1998 13.5 27.7998C13 27.2998 12.7 26.7998 12.5 26.1998C12.3 25.5998 12.1 24.9998 12.1 23.9998C12 22.9998 12 22.6998 12 20.2998C12 17.8998 12 17.4998 12.1 16.5998C12.1 15.5998 12.3 14.9998 12.5 14.3998C12.7 13.7998 13.1 13.2998 13.5 12.7998C14 12.3998 14.5 11.9998 15.1 11.7998C15.7 11.5998 16.3 11.3998 17.3 11.3998C18.3 11.2998 18.6 11.2998 21 11.2998ZM25.8 13.3998C25.4 13.3998 25.1 13.5998 24.9 13.8998C24.7 14.1998 24.7 14.5998 24.9 14.9998C25.1 15.2998 25.4 15.4998 25.8 15.4998C26.4 15.4998 26.9 14.9998 26.9 14.3998C26.9 13.7998 26.4 13.3998 25.8 13.3998ZM21 15.5998C18.4 15.5998 16.4 17.6998 16.4 20.1998C16.4 22.7998 18.5 24.7998 21 24.7998C23.6 24.7998 25.6 22.6998 25.6 20.1998C25.6 17.6998 23.6 15.5998 21 15.5998ZM21 17.2998C22.1 17.2998 23.1 17.7998 23.6 18.7998C24.1 19.6998 24.1 20.8998 23.6 21.7998C23 22.6998 22 23.2998 21 23.2998C19.4 23.2998 18.1 21.8998 18.1 20.2998C18.1 18.5998 19.4 17.2998 21 17.2998Z" fill="#73492A"/>
</svg>
