<svg width="30" height="31" viewBox="0 0 30 31" fill="none" xmlns="http://www.w3.org/2000/svg">
<circle cx="15" cy="15.75" r="15" fill="#9D6F3E"/>
<path d="M19.6904 8.65944C16.8318 8.11352 13.8632 8.11352 11.0046 8.65944C9.74018 8.93239 8.14594 10.461 7.87107 11.662C7.37631 14.0094 7.37631 16.4114 7.87107 18.7588C8.20092 19.9598 9.79516 21.4884 11.0046 21.7614C11.0596 21.7614 11.1145 21.816 11.1145 21.8705V25.3098C11.1145 25.4736 11.3344 25.5828 11.4444 25.419L13.0936 23.7267C13.0936 23.7267 14.413 22.3619 14.6329 22.1435C14.6329 22.1435 14.6878 22.0889 14.7428 22.0889C16.392 22.1435 18.0962 21.9797 19.7454 21.7068C21.0098 21.4338 22.6041 19.9053 22.8789 18.7042C23.3737 16.3568 23.3737 13.9548 22.8789 11.6074C22.5491 10.461 20.9548 8.93239 19.6904 8.65944ZM19.7454 18.9226C19.4705 19.4685 19.1407 19.9053 18.591 20.1782C18.426 20.2328 18.2611 20.2874 18.0962 20.342C17.8763 20.2874 17.7114 20.2328 17.5465 20.1782C15.7873 19.4685 14.1381 18.4859 12.8187 17.0665C12.1041 16.2476 11.4993 15.3196 11.0046 14.3369C10.7847 13.8456 10.5648 13.4089 10.3999 12.9176C10.2349 12.4808 10.5098 12.0441 10.7847 11.7166C11.0596 11.389 11.3894 11.1706 11.7742 11.0069C12.0491 10.8431 12.324 10.9523 12.5438 11.1706C12.9836 11.7166 13.4234 12.2625 13.7533 12.863C13.9732 13.2451 13.9182 13.6818 13.5334 13.9548C13.4234 14.0094 13.3685 14.064 13.2585 14.1732C13.2035 14.2278 13.0936 14.2823 13.0386 14.3915C12.9287 14.5553 12.9287 14.7191 12.9836 14.8829C13.4234 16.1385 14.248 17.1211 15.5124 17.667C15.7323 17.7762 15.8973 17.8308 16.1721 17.8308C16.5569 17.7762 16.7219 17.3395 16.9967 17.1211C17.2716 16.9027 17.6014 16.9027 17.9313 17.0665C18.2062 17.2303 18.481 17.4486 18.8109 17.667C19.0857 17.8854 19.3606 18.0492 19.6355 18.2675C19.8004 18.3767 19.8554 18.6497 19.7454 18.9226ZM17.4365 14.8283C17.3266 14.8283 17.3815 14.8283 17.4365 14.8283C17.2166 14.8283 17.1616 14.7191 17.1067 14.5553C17.1067 14.4461 17.1067 14.2823 17.0517 14.1732C16.9967 13.9548 16.8868 13.7364 16.6669 13.5727C16.5569 13.5181 16.447 13.4635 16.337 13.4089C16.1721 13.3543 16.0622 13.3543 15.8973 13.3543C15.7323 13.2997 15.6774 13.1905 15.6774 13.0267C15.6774 12.9176 15.8423 12.8084 15.9522 12.8084C16.8318 12.863 17.4915 13.3543 17.6014 14.3915C17.6014 14.4461 17.6014 14.5553 17.6014 14.6099C17.6014 14.7191 17.5465 14.8283 17.4365 14.8283ZM16.8868 12.4262C16.6119 12.3171 16.337 12.2079 16.0072 12.1533C15.8973 12.1533 15.7323 12.0987 15.6224 12.0987C15.4575 12.0987 15.3475 11.9895 15.4025 11.8257C15.4025 11.662 15.5124 11.5528 15.6774 11.6074C16.2271 11.662 16.7219 11.7711 17.2166 11.9895C18.2062 12.4808 18.7559 13.2997 18.9208 14.3915C18.9208 14.4461 18.9208 14.5007 18.9208 14.5553C18.9208 14.6645 18.9208 14.7737 18.9208 14.9374C18.9208 14.992 18.9208 15.0466 18.9208 15.1012C18.8658 15.3196 18.481 15.3742 18.426 15.1012C18.426 15.0466 18.3711 14.9374 18.3711 14.8829C18.3711 14.3915 18.2611 13.9002 18.0412 13.4635C17.7114 12.9722 17.3266 12.6446 16.8868 12.4262ZM19.8554 15.7017C19.6904 15.7017 19.5805 15.5379 19.5805 15.3742C19.5805 15.0466 19.5255 14.7191 19.4705 14.3915C19.2507 12.6446 17.8213 11.2252 16.1171 10.9523C15.8423 10.8977 15.5674 10.8977 15.3475 10.8431C15.1826 10.8431 14.9627 10.8431 14.9077 10.6247C14.8527 10.461 15.0177 10.2972 15.1826 10.2972C15.2376 10.2972 15.2925 10.2972 15.2925 10.2972C17.5465 10.3518 15.4025 10.2972 15.2925 10.2972C17.6014 10.3518 19.5255 11.8803 19.9103 14.1732C19.9653 14.5553 20.0203 14.9374 20.0203 15.3742C20.1302 15.5379 20.0203 15.7017 19.8554 15.7017Z" fill="white"/>
</svg>
