<svg width="18" height="19" viewBox="0 0 18 19" fill="none" xmlns="http://www.w3.org/2000/svg">
<path d="M9 0.299805C11.4 0.299805 11.8 0.299803 12.7 0.399803C13.7 0.399803 14.3 0.599805 14.9 0.799805C15.5 0.999805 16 1.3998 16.5 1.7998C17 2.1998 17.3 2.7998 17.5 3.3998C17.7 3.9998 17.9 4.59981 17.9 5.59981C17.9 6.59981 18 6.8998 18 9.2998C18 11.7998 18 12.0998 17.9 12.9998C17.9 13.9998 17.7 14.5998 17.5 15.1998C17.3 15.7998 16.9 16.2998 16.5 16.7998C16 17.2998 15.5 17.5998 14.9 17.7998C14.3 17.9998 13.7 18.1998 12.7 18.1998C11.7 18.1998 11.4 18.2998 9 18.2998C6.6 18.2998 6.19999 18.2998 5.29999 18.1998C4.29999 18.1998 3.69998 17.9998 3.09998 17.7998C2.49998 17.5998 2 17.1998 1.5 16.7998C1 16.2998 0.7 15.7998 0.5 15.1998C0.3 14.5998 0.0999756 13.9998 0.0999756 12.9998C-2.44156e-05 11.9998 0 11.6998 0 9.2998C0 6.8998 -2.44156e-05 6.49981 0.0999756 5.59981C0.0999756 4.59981 0.3 3.9998 0.5 3.3998C0.7 2.7998 1.1 2.2998 1.5 1.7998C2 1.3998 2.49998 0.999805 3.09998 0.799805C3.69998 0.599805 4.29999 0.399803 5.29999 0.399803C6.29999 0.299803 6.6 0.299805 9 0.299805ZM13.8 2.3998C13.4 2.3998 13.1 2.5998 12.9 2.8998C12.7 3.1998 12.7 3.59981 12.9 3.99981C13.1 4.29981 13.4 4.49981 13.8 4.49981C14.4 4.49981 14.9 3.9998 14.9 3.3998C14.9 2.7998 14.4 2.3998 13.8 2.3998ZM9 4.59981C6.4 4.59981 4.39996 6.69981 4.39996 9.19981C4.39996 11.7998 6.5 13.7998 9 13.7998C11.6 13.7998 13.6 11.6998 13.6 9.19981C13.6 6.69981 11.6 4.59981 9 4.59981ZM9 6.2998C10.1 6.2998 11.1 6.7998 11.6 7.7998C12.1 8.6998 12.1 9.89981 11.6 10.7998C11 11.6998 10 12.2998 9 12.2998C7.4 12.2998 6.09998 10.8998 6.09998 9.2998C6.09998 7.5998 7.4 6.2998 9 6.2998Z" fill="#73492A"/>
</svg>
