<svg width="41" height="41" viewBox="0 0 41 41" fill="none" xmlns="http://www.w3.org/2000/svg">
<path d="M20.5999 40.4C9.49991 40.4 0.399902 31.3 0.399902 20.2C0.399902 9.1 9.49991 0 20.5999 0C31.6999 0 40.7999 9.1 40.7999 20.2C40.6999 31.3 31.6999 40.4 20.5999 40.4Z" fill="white"/>
<path d="M21.9 29.2998V21.0998H24.6L25 17.8998H22V15.8998C22 14.9998 22.2 14.2998 23.5 14.2998H25.1V11.3998C24.3 11.2998 23.5 11.2998 22.7 11.2998C20.3 11.2998 18.7 12.7998 18.7 15.4998V17.8998H16V21.0998H18.7V29.2998H21.9Z" fill="#73492A"/>
</svg>
