<svg width="35" height="35" viewBox="0 0 35 35" fill="none" xmlns="http://www.w3.org/2000/svg">
<g clip-path="url(#clip0_611:862)">
<rect x="7.875" y="3.5" width="22.75" height="23.625" fill="#73492A"/>
<path d="M33.9979 27.4561C35.3307 28.7889 35.3307 30.9571 33.9979 32.2899C33.9961 32.292 33.9939 32.2939 33.9918 32.296L31.6532 34.6055C31.3867 34.8685 31.0395 34.9999 30.6927 34.9999C30.3396 34.9999 29.9872 34.8643 29.7196 34.5935C29.1893 34.0562 29.1946 33.1905 29.7319 32.66L31.1001 31.3085H9.15923C6.14368 31.3085 3.69049 28.8553 3.69049 25.8398V3.86577L2.32651 5.21159C1.78898 5.74191 0.923273 5.73603 0.392955 5.19851C-0.137363 4.66098 -0.131488 3.79527 0.406039 3.26495L2.71583 0.986402C4.04483 -0.324706 6.20723 -0.324706 7.53623 0.986402L9.84602 3.26495C10.3836 3.79527 10.3894 4.66098 9.85911 5.19851C9.59155 5.46954 9.2388 5.60546 8.88579 5.60546C8.53892 5.60546 8.19205 5.47435 7.92556 5.21159L6.42486 3.73092V25.8398C6.42486 27.3474 7.65158 28.5742 9.15923 28.5742H31.2387L29.7319 27.086C29.1946 26.5554 29.189 25.6897 29.7196 25.1525C30.2502 24.6155 31.1159 24.6099 31.6532 25.1404L33.9918 27.45C33.9939 27.4521 33.9961 27.454 33.9979 27.4561ZM30.8975 0H13.1924C12.4354 0 11.8226 0.615233 11.8252 1.37226C11.8282 2.12528 12.4394 2.73437 13.1924 2.73437H30.8975C31.6526 2.73437 32.2646 3.3464 32.2646 4.10155V21.875C32.2646 22.628 32.8737 23.2395 33.6268 23.2421C34.3838 23.2448 34.999 22.632 34.999 21.875V4.10155C34.999 1.83635 33.1627 0 30.8975 0ZM20.0967 23.4397C20.8519 23.4397 21.4639 22.8277 21.4639 22.0726V15.9875C21.4639 13.9143 19.7773 12.2278 17.7041 12.2278C16.796 12.2278 15.962 12.5514 15.3116 13.0895C14.6611 12.5514 13.8271 12.2278 12.919 12.2278C12.3975 12.2278 11.9003 12.3348 11.4485 12.5276C11.2052 12.3049 10.8821 12.1679 10.5264 12.1679C9.77125 12.1679 9.15923 12.78 9.15923 13.5351V22.08C9.15923 22.8352 9.77125 23.4472 10.5264 23.4472C11.2816 23.4472 11.8936 22.8352 11.8936 22.08V15.9875C11.8936 15.4222 12.3537 14.9621 12.919 14.9621C13.4843 14.9621 13.9444 15.4222 13.9444 15.9875V22.08C13.9444 22.8352 14.5564 23.4472 15.3116 23.4472C16.0667 23.4472 16.6787 22.8352 16.6787 22.08V15.9875C16.6787 15.4222 17.1388 14.9621 17.7041 14.9621C18.2694 14.9621 18.7295 15.4222 18.7295 15.9875V22.0726C18.7295 22.8277 19.3415 23.4397 20.0967 23.4397ZM26.3003 7.3828C26.2931 7.3828 26.2862 7.38386 26.2789 7.38386C26.272 7.38386 26.2651 7.3828 26.2578 7.3828C24.5192 7.3828 23.1045 8.79912 23.1045 10.5399C23.1045 11.2948 23.7165 11.9071 24.4717 11.9071C25.2269 11.9071 25.8389 11.2948 25.8389 10.5399C25.8389 10.3108 26.0309 10.1172 26.2578 10.1172C26.2651 10.1172 26.272 10.1161 26.2792 10.1161C26.2862 10.1161 26.2931 10.1172 26.3003 10.1172C26.5179 10.1172 26.7033 10.295 26.7182 10.5116C26.6912 10.6117 26.4816 11.2309 25.1716 12.6721C24.359 13.5656 23.5606 14.2932 23.5529 14.3002C23.1344 14.6799 22.9929 15.278 23.1964 15.8049C23.3998 16.332 23.9067 16.6797 24.4717 16.6797H28.1631C28.9182 16.6797 29.5303 16.0676 29.5303 15.3125C29.5303 14.5573 28.9182 13.9453 28.1631 13.9453H27.6929C28.9068 12.5161 29.4536 11.4526 29.4536 10.5399C29.4536 8.79912 28.0389 7.3828 26.3003 7.3828Z" fill="#73492A"/>
<path d="M21.4641 22.0726C21.4641 22.8277 20.8521 23.4398 20.0969 23.4398C19.3417 23.4398 18.7297 22.8277 18.7297 22.0726V15.9875C18.7297 15.4222 18.2696 14.9621 17.7043 14.9621C17.139 14.9621 16.6789 15.4222 16.6789 15.9875V22.0801C16.6789 22.8352 16.0669 23.4472 15.3118 23.4472C14.5566 23.4472 13.9446 22.8352 13.9446 22.0801V15.9875C13.9446 15.4222 13.4845 14.9621 12.9192 14.9621C12.3539 14.9621 11.8938 15.4222 11.8938 15.9875V22.0801C11.8938 22.8352 11.2818 23.4472 10.5266 23.4472C9.77145 23.4472 9.15942 22.8352 9.15942 22.0801V13.5351C9.15942 12.78 9.77145 12.168 10.5266 12.168C10.8823 12.168 11.2054 12.3049 11.4487 12.5276C11.9005 12.3349 12.3977 12.2278 12.9192 12.2278C13.8273 12.2278 14.6613 12.5514 15.3118 13.0895C15.9622 12.5514 16.7962 12.2278 17.7043 12.2278C19.7775 12.2278 21.4641 13.9143 21.4641 15.9875V22.0726Z" fill="white"/>
<path d="M26.2791 7.38388C26.2864 7.38388 26.2933 7.38281 26.3005 7.38281C28.0391 7.38281 29.4538 8.79913 29.4538 10.5399C29.4538 11.4526 28.907 12.5162 27.6931 13.9453H28.1633C28.9184 13.9453 29.5305 14.5573 29.5305 15.3125C29.5305 16.0676 28.9184 16.6797 28.1633 16.6797H24.4719C23.9069 16.6797 23.4 16.332 23.1966 15.8049C22.9931 15.278 23.1346 14.6799 23.553 14.3002C23.5608 14.2932 24.3592 13.5656 25.1718 12.6721C26.4818 11.231 26.6914 10.6117 26.7184 10.5116C26.7034 10.295 26.5181 10.1172 26.3005 10.1172C26.2933 10.1172 26.2864 10.1161 26.2794 10.1161C26.2722 10.1161 26.2653 10.1172 26.258 10.1172C26.0311 10.1172 25.8391 10.3108 25.8391 10.5399C25.8391 11.2948 25.227 11.9071 24.4719 11.9071C23.7167 11.9071 23.1047 11.2948 23.1047 10.5399C23.1047 8.79913 24.5194 7.38281 26.258 7.38281C26.2653 7.38281 26.2722 7.38388 26.2791 7.38388Z" fill="white"/>
</g>
<defs>
<clipPath id="clip0_611:862">
<rect width="35" height="35" fill="white"/>
</clipPath>
</defs>
</svg>
