<svg width="31" height="30" viewBox="0 0 31 30" fill="none" xmlns="http://www.w3.org/2000/svg">
<g clip-path="url(#clip0)">
<path d="M15.2342 9.78015C14.4729 9.78015 13.9709 9.85327 13.6816 9.92705V14.8106C14.012 14.8844 14.3998 14.9086 14.9397 14.9086C16.9278 14.9086 18.1545 13.9018 18.1545 12.2095C18.1552 10.6877 17.0988 9.78015 15.2342 9.78015Z" fill="#73492A"/>
<path d="M26.616 0H4.38397C2.42075 0 0.830322 1.59108 0.830322 3.55364V26.447C0.830322 28.4096 2.4214 30 4.38397 30H26.616C28.5792 30 30.1689 28.4089 30.1689 26.447V3.55364C30.1696 1.59042 28.5792 0 26.616 0ZM27.9798 25.877C27.9798 26.9458 27.1141 27.8102 26.0466 27.8102H4.9128C3.84469 27.8102 2.97896 26.9445 2.97896 25.877V4.16474C2.97896 3.09728 3.84469 2.23156 4.9128 2.23156H26.046C27.1141 2.23156 27.9792 3.09728 27.9792 4.16474L27.9798 25.877Z" fill="#73492A"/>
<path d="M26.0461 3.59546H4.91291C4.59822 3.59546 4.34229 3.85008 4.34229 4.16543V25.8777C4.34229 26.1911 4.59756 26.4477 4.91291 26.4477H26.0461C26.3601 26.4477 26.6161 26.1918 26.6161 25.8777V4.16477C26.6161 3.85008 26.3608 3.59546 26.0461 3.59546ZM20.3445 16.0388C19.0694 17.2407 17.1734 17.7807 14.964 17.7807C14.4737 17.7807 14.0539 17.7558 13.6818 17.7069V23.6364H10.0041V7.30122C11.161 7.10471 12.7697 6.95716 15.0522 6.95716C17.3595 6.95716 18.9995 7.39916 20.1049 8.28316C21.1593 9.11689 21.8696 10.4919 21.8696 12.111C21.8696 13.7321 21.3277 15.1071 20.3445 16.0388Z" fill="#73492A"/>
</g>
<defs>
<clipPath id="clip0">
<rect width="30" height="30" fill="white" transform="translate(0.5)"/>
</clipPath>
</defs>
</svg>
