<svg width="35" height="35" viewBox="0 0 35 35" fill="none" xmlns="http://www.w3.org/2000/svg">
<path d="M12.3295 19.7979C12.8436 19.2831 13.1256 18.5033 13.1248 17.604C13.1248 17.2843 13.0885 16.9524 13.0166 16.6178C12.5957 14.6588 11.0876 13.125 9.58223 13.125C8.89009 13.125 8.27773 13.4405 7.85759 14.013C7.4866 14.5178 7.29075 15.1836 7.29151 15.9377C7.29151 16.2567 7.3278 16.5878 7.39972 16.9233V16.9239C7.82054 18.8828 9.32875 20.4167 10.8341 20.4167C11.408 20.4167 11.925 20.2023 12.3295 19.7979Z" fill="#73492A"/>
<path d="M25.4176 13.125C23.9122 13.125 22.4041 14.6588 21.9832 16.6178C21.9113 16.9524 21.875 17.2843 21.875 17.6033C21.8743 18.5034 22.1563 19.2831 22.6704 19.7979C23.0748 20.2024 23.5918 20.4167 24.1657 20.4167C25.6711 20.4167 27.1792 18.8828 27.6001 16.9239V16.9233C27.672 16.5879 27.7083 16.2567 27.7083 15.9385C27.709 15.1836 27.5132 14.5179 27.1422 14.013C26.7221 13.4405 26.1097 13.125 25.4176 13.125Z" fill="#73492A"/>
<path d="M23.9775 11.0729V11.0722C24.0274 10.8087 24.0544 10.5531 24.0609 10.3074C24.0851 9.34604 23.7995 8.50863 23.2555 7.95041C22.8347 7.51886 22.2971 7.29102 21.6997 7.29102C20.1751 7.29102 18.6875 8.83266 18.3138 10.8015C18.2639 11.065 18.2369 11.3207 18.2304 11.5664C18.2062 12.5277 18.4918 13.3651 19.0358 13.9233C19.4566 14.3549 19.9942 14.5827 20.5916 14.5827C22.1162 14.5826 23.6037 13.041 23.9775 11.0729Z" fill="#73492A"/>
<path d="M17.5 0C7.85066 0 0 7.85066 0 17.5C0 27.1493 7.85066 35 17.5 35C27.1493 35 35 27.1493 35 17.5C35 7.85066 27.1493 0 17.5 0ZM17.5 32.0833C9.45854 32.0833 2.91669 25.5415 2.91669 17.5C2.91669 14.0033 4.1557 10.7922 6.21496 8.27709L14.9731 17.0352C14.3048 17.716 13.9672 18.6053 13.7296 19.2616C13.625 19.55 13.4954 19.9096 13.4056 20.0164C13.1072 20.376 12.7405 20.7093 12.3517 21.0618C11.3584 21.9626 10.2326 22.9837 10.2084 24.6492C10.1963 25.5308 10.4683 26.2799 10.9959 26.8154C11.572 27.3993 12.4251 27.7084 13.4619 27.7084C14.629 27.7084 15.3638 27.3203 15.9541 27.0084C16.4597 26.7414 16.8584 26.5305 17.4993 26.5305C18.1409 26.5305 18.5404 26.7413 19.0459 27.0084C19.6362 27.3203 20.3718 27.7084 21.5382 27.7084C22.575 27.7084 23.4281 27.3993 24.0041 26.8154C24.1296 26.6881 24.2383 26.547 24.3344 26.3966L26.7229 28.7851C24.2078 30.8443 20.9967 32.0833 17.5 32.0833ZM28.7851 26.7229L21.2388 19.1766C20.8415 18.0819 20.1743 16.4218 18.1709 16.1087L15.9737 13.9115C16.5106 13.3532 16.7934 12.5219 16.7694 11.5684C16.763 11.3213 16.7359 11.0657 16.6861 10.8015C16.3123 8.83326 14.8248 7.29162 13.3002 7.29162C12.7027 7.29162 12.1652 7.51946 11.7443 7.95102C11.457 8.24585 11.2472 8.62196 11.1117 9.04941L8.27716 6.21489C10.7922 4.1557 14.0033 2.91669 17.5 2.91669C25.5415 2.91669 32.0833 9.45854 32.0833 17.5C32.0833 20.9967 30.8443 24.2078 28.7851 26.7229Z" fill="#73492A"/>
</svg>
