<svg width="50" height="44" viewBox="0 0 50 44" fill="none" xmlns="http://www.w3.org/2000/svg">
<path d="M24.999 0.976562C11.1922 0.976562 0 9.75965 0 20.5963C0 26.0909 2.88585 31.0514 7.52195 34.6138C6.50537 39.8344 -0.0546342 41.9504 0.396098 43.3883C5.93756 45.4262 17.038 40.9393 19.7483 39.7755C21.4439 40.0599 23.198 40.2178 24.999 40.2178C38.8059 40.2178 50 31.4347 50 20.5963C50 9.75792 38.8059 0.976562 24.999 0.976562ZM23.2273 21.4132C23.2273 26.7483 20.5717 29.7419 15.3385 30.309C15.3268 30.3108 15.319 30.3108 15.3073 30.3108C15.2507 30.3108 15.1883 30.2917 15.1473 30.257C15.0946 30.2171 15.0634 30.1564 15.0634 30.094V27.3831C15.0634 27.3033 15.1122 27.2304 15.1883 27.194C17.5746 26.0372 18.7668 24.216 18.8273 21.6317H15.3073C15.1746 21.6317 15.0634 21.5346 15.0634 21.4149V14.5935C15.0634 14.4738 15.1746 14.3767 15.3073 14.3767H22.9834C23.1161 14.3767 23.2273 14.4738 23.2273 14.5935V21.4132ZM36.8176 21.4132C36.8176 26.6667 34.4663 29.3273 28.9483 30.3073C28.9327 30.309 28.9171 30.3108 28.9015 30.3108C28.8449 30.3108 28.7902 30.2934 28.7454 30.2622C28.6888 30.2223 28.6576 30.1581 28.6576 30.094V27.3831C28.6576 27.3033 28.7063 27.2304 28.7824 27.194C31.1688 26.0372 32.361 24.216 32.4215 21.6317H28.9015C28.7688 21.6317 28.6576 21.5346 28.6576 21.4149V14.5935C28.6576 14.4738 28.7688 14.3767 28.9015 14.3767H36.5737C36.7102 14.3767 36.8176 14.4738 36.8176 14.5935V21.4132Z" fill="#73492A"/>
</svg>
