<svg width="41" height="41" viewBox="0 0 41 41" fill="none" xmlns="http://www.w3.org/2000/svg">
<path d="M20.2 40.4C9.09995 40.4 0 31.3 0 20.2C0 9.1 9.09995 0 20.2 0C31.3 0 40.4 9.1 40.4 20.2C40.4 31.3 31.3 40.4 20.2 40.4Z" fill="white"/>
<path d="M29.4 15.7001C29.2 14.9001 28.5 14.2001 27.7 14.0001C26.2 13.6001 20.3 13.6001 20.3 13.6001C20.3 13.6001 14.4 13.6001 12.9 14.0001C12.1 14.2001 11.4 14.9001 11.2 15.7001C10.8 18.3001 10.6 22.3001 11.2 24.8001C11.4 25.6001 12.1 26.3001 12.9 26.5001C14.4 26.9001 20.3 26.9001 20.3 26.9001C20.3 26.9001 26.2 26.9001 27.7 26.5001C28.5 26.3001 29.2 25.6001 29.4 24.8001C29.9 22.2001 30 18.2001 29.4 15.7001ZM18.4 23.1001V17.4001L23.3 20.3001L18.4 23.1001Z" fill="#73492A"/>
</svg>
