<svg width="30" height="31" viewBox="0 0 30 31" fill="none" xmlns="http://www.w3.org/2000/svg">
<circle cx="15" cy="15.75" r="15" fill="#9D6F3E"/>
<path d="M7.01303 16.0306L10.4616 17.3165L11.8059 21.6418C11.8644 21.934 12.2151 21.9925 12.4489 21.8171L14.3778 20.239C14.5531 20.0636 14.8454 20.0636 15.0792 20.239L18.5277 22.7523C18.7615 22.9277 19.1122 22.8108 19.1707 22.5185L21.7425 10.244C21.8009 9.95174 21.5087 9.65949 21.2164 9.77639L7.01303 15.2707C6.66232 15.3876 6.66232 15.9137 7.01303 16.0306ZM11.6306 16.6735L18.4108 12.5235C18.5277 12.4651 18.6446 12.6405 18.5277 12.6989L12.975 17.901C12.7996 18.0763 12.6242 18.3101 12.6242 18.6024L12.4489 20.0052C12.4489 20.1805 12.1566 20.239 12.0982 20.0052L11.3968 17.4334C11.2214 17.1411 11.3384 16.7904 11.6306 16.6735Z" fill="white"/>
</svg>
