<svg xmlns="http://www.w3.org/2000/svg" xmlns:xlink="http://www.w3.org/1999/xlink"><defs>
<clipPath id="clip0_611:840">
<rect width="35" height="35" fill="white" transform="translate(0 0.5)"/>
</clipPath>

<clipPath id="clip0">
<rect width="30" height="30" fill="white" transform="translate(0.5)"/>
</clipPath>

<clipPath id="clip0">
<rect width="30" height="30" fill="white" transform="translate(0.5)"/>
</clipPath>

<clipPath id="clip0">
<rect width="30" height="30" fill="white" transform="translate(0.5)"/>
</clipPath>

<clipPath id="clip0">
<rect width="30" height="30" fill="white" transform="translate(0.5)"/>
</clipPath>

<clipPath id="clip0">
<rect width="29.9999" height="30" fill="white" transform="translate(0.5)"/>
</clipPath>

<clipPath id="clip0">
<rect width="30" height="30" fill="white" transform="translate(0.5)"/>
</clipPath>

<clipPath id="clip0">
<rect width="30" height="30" fill="white" transform="translate(0.5)"/>
</clipPath>

<clipPath id="clip0">
<rect width="30" height="30" fill="white" transform="translate(0.5)"/>
</clipPath>

<clipPath id="clip0_611:862">
<rect width="35" height="35" fill="white"/>
</clipPath>
</defs><symbol id="arrow-up-circle" viewBox="0 0 61 61">
<path d="M30.5 55.9168C44.5373 55.9168 55.9167 44.5374 55.9167 30.5002C55.9167 16.4629 44.5373 5.0835 30.5 5.0835C16.4628 5.0835 5.08337 16.4629 5.08337 30.5002C5.08337 44.5374 16.4628 55.9168 30.5 55.9168Z" fill="white" stroke="#73492A" stroke-width="2" stroke-linecap="round" stroke-linejoin="round"/>
<path d="M40.6667 30.5002L30.5 20.3335L20.3334 30.5002" stroke="#73492A" stroke-width="2" stroke-linecap="round" stroke-linejoin="round"/>
<path d="M30.5 40.6668V20.3335" stroke="#73492A" stroke-width="2" stroke-linecap="round" stroke-linejoin="round"/>
</symbol><symbol id="guests" viewBox="0 0 35 36">
<g clip-path="url(#clip0_611:840)">
<path d="M10.7106 28.6283H9.18797V27.2849C9.18797 26.676 8.69264 26.1807 8.08377 26.1807H5.63042C5.02155 26.1807 4.52622 26.676 4.52622 27.2849V28.6283H3.00365C2.57682 28.6283 2.23071 28.9744 2.23071 29.4012V34.7268C2.23071 35.1537 2.57682 35.4997 3.00365 35.4997H10.7105C11.1374 35.4997 11.4835 35.1536 11.4835 34.7268V29.4012C11.4835 28.9743 11.1374 28.6283 10.7106 28.6283ZM7.98731 28.6283H7.98725H5.72701V27.3814H7.98731V28.6283Z" fill="#73492A"/>
<path d="M17.7623 6.26145C19.3533 6.26145 20.643 4.97171 20.643 3.38073C20.643 1.78975 19.3533 0.5 17.7623 0.5C16.1713 0.5 14.8816 1.78975 14.8816 3.38073C14.8816 4.97171 16.1713 6.26145 17.7623 6.26145Z" fill="#73492A"/>
<path d="M31.9352 22.7963H31.3155V19.1045H31.8242C31.9761 19.1045 32.0992 18.9814 32.0992 18.8296V17.9132C32.0992 17.7614 31.9761 17.6382 31.8242 17.6382H28.2125C28.4169 17.0447 28.1988 16.3671 27.6461 16.0149L24.7933 14.1969L24.7707 10.4525C24.7616 8.64784 23.2861 7.17969 21.4814 7.17969C20.709 7.17969 14.7944 7.17969 14.0194 7.17969C12.2147 7.17969 10.7392 8.64784 10.7301 10.4525L10.6787 20.664C10.6748 21.4316 11.294 22.0571 12.0616 22.0609C12.0641 22.0609 12.0664 22.0609 12.0687 22.0609C12.8331 22.0609 13.4547 21.4431 13.4586 20.678L13.5099 10.4665C13.5106 10.3184 13.631 10.199 13.779 10.1993C13.927 10.1997 14.0466 10.3198 14.0466 10.4677L14.0472 33.832C14.0472 34.7532 14.794 35.5 15.7152 35.5C16.6364 35.5 17.3831 34.7532 17.3831 33.832V20.4999H18.1032V33.8319C18.1032 34.7531 18.85 35.4999 19.7712 35.4999C20.6924 35.4999 21.4392 34.7531 21.4392 33.8319C21.4392 12.0653 21.4096 23.9944 21.4089 10.4772C21.4089 10.3184 21.5362 10.1889 21.695 10.1863C21.8538 10.1837 21.9855 10.3089 21.9906 10.4676C21.9906 10.4676 21.9906 10.4677 21.9906 10.4678L22.0178 14.9705C22.0206 15.4424 22.2627 15.8807 22.6607 16.1343L25.8039 18.1373V18.8295C25.8039 18.9813 25.927 19.1044 26.0788 19.1044H26.5876V22.7962H25.9678C25.5072 22.7962 25.1339 23.1695 25.1339 23.6301V33.1963C25.1339 33.6569 25.5073 34.0302 25.9678 34.0302H26.5876V34.931C26.5876 35.2451 26.8423 35.4998 27.1564 35.4998C27.4705 35.4998 27.7252 35.2451 27.7252 34.931V34.0302H30.1777V34.931C30.1777 35.2451 30.4324 35.4998 30.7465 35.4998C31.0607 35.4998 31.3154 35.2451 31.3154 34.931V34.0302H31.935C32.3956 34.0302 32.769 33.6569 32.769 33.1963V23.6301C32.7691 23.1696 32.3959 22.7963 31.9352 22.7963ZM30.1779 22.7963H27.7256V19.1045H30.1779V22.7963Z" fill="#73492A"/>
</g>

</symbol><symbol id="icon-feedback" viewBox="0 0 50 44">
<path d="M24.999 0.976562C11.1922 0.976562 0 9.75965 0 20.5963C0 26.0909 2.88585 31.0514 7.52195 34.6138C6.50537 39.8344 -0.0546342 41.9504 0.396098 43.3883C5.93756 45.4262 17.038 40.9393 19.7483 39.7755C21.4439 40.0599 23.198 40.2178 24.999 40.2178C38.8059 40.2178 50 31.4347 50 20.5963C50 9.75792 38.8059 0.976562 24.999 0.976562ZM23.2273 21.4132C23.2273 26.7483 20.5717 29.7419 15.3385 30.309C15.3268 30.3108 15.319 30.3108 15.3073 30.3108C15.2507 30.3108 15.1883 30.2917 15.1473 30.257C15.0946 30.2171 15.0634 30.1564 15.0634 30.094V27.3831C15.0634 27.3033 15.1122 27.2304 15.1883 27.194C17.5746 26.0372 18.7668 24.216 18.8273 21.6317H15.3073C15.1746 21.6317 15.0634 21.5346 15.0634 21.4149V14.5935C15.0634 14.4738 15.1746 14.3767 15.3073 14.3767H22.9834C23.1161 14.3767 23.2273 14.4738 23.2273 14.5935V21.4132ZM36.8176 21.4132C36.8176 26.6667 34.4663 29.3273 28.9483 30.3073C28.9327 30.309 28.9171 30.3108 28.9015 30.3108C28.8449 30.3108 28.7902 30.2934 28.7454 30.2622C28.6888 30.2223 28.6576 30.1581 28.6576 30.094V27.3831C28.6576 27.3033 28.7063 27.2304 28.7824 27.194C31.1688 26.0372 32.361 24.216 32.4215 21.6317H28.9015C28.7688 21.6317 28.6576 21.5346 28.6576 21.4149V14.5935C28.6576 14.4738 28.7688 14.3767 28.9015 14.3767H36.5737C36.7102 14.3767 36.8176 14.4738 36.8176 14.5935V21.4132Z" fill="#73492A"/>
</symbol><symbol id="icon-food" viewBox="0 0 31 30">
<g clip-path="url(#clip0)">
<path d="M25.6251 15.7416C25.489 15.5858 25.3735 15.4158 25.2784 15.2363C25.2316 20.0606 21.2931 23.9713 16.4579 23.9713C11.5937 23.9713 7.63632 20.0139 7.63632 15.1497C7.63632 10.2855 11.5937 6.32808 16.4579 6.32808C20.6424 6.32808 24.1556 9.25685 25.0558 13.172L25.8547 7.23328L25.8727 7.09975C23.5979 4.44313 20.2214 2.75647 16.4579 2.75647C13.5217 2.75647 10.8212 3.7835 8.69553 5.49635V5.62457V5.73811V8.25351V8.35336C8.69553 10.0335 7.82471 11.5675 6.44678 12.444V22.2763V22.4457C8.70292 25.533 12.3498 27.5427 16.4579 27.5427C20.7747 27.5427 24.5825 25.3236 26.8021 21.9668V21.7852V16.5187C26.3518 16.3722 25.9437 16.106 25.6251 15.7416Z" fill="#73492A"/>
<path d="M16.4579 7.82739C12.4204 7.82739 9.1355 11.1122 9.1355 15.1498C9.1355 19.1875 12.4203 22.4722 16.4579 22.4722C20.4956 22.4722 23.7803 19.1875 23.7803 15.1498C23.7803 11.1122 20.4955 7.82739 16.4579 7.82739Z" fill="#73492A"/>
<path d="M30.4665 1.44676C30.4665 0.808716 29.9493 0.291504 29.3113 0.291504C28.7328 0.291504 28.2435 0.719366 28.1664 1.29275L26.4784 13.8407C26.4339 14.171 26.5343 14.5043 26.7536 14.7552C26.973 15.006 27.2899 15.1498 27.6232 15.1498H28.301V28.609C28.301 29.2162 28.7933 29.7084 29.4004 29.7084C30.0076 29.7084 30.4998 29.2162 30.4998 28.609L30.4665 1.44676Z" fill="#73492A"/>
<path d="M7.19627 1.69074C7.19627 1.27668 6.86076 0.941162 6.44669 0.941162C6.03262 0.941162 5.69711 1.27668 5.69711 1.69074V5.83834H4.59772V1.69074C4.59772 1.27668 4.26221 0.941162 3.84814 0.941162C3.43407 0.941162 3.09855 1.27668 3.09855 1.69074V5.83834H1.99917V1.69074C1.99917 1.27668 1.66365 0.941162 1.24958 0.941162C0.835513 0.941162 0.5 1.27668 0.5 1.69074V8.45358C0.5 9.91467 1.44118 11.1594 2.74875 11.6154V28.6091C2.74875 29.2162 3.24097 29.7085 3.84814 29.7085C4.4553 29.7085 4.94752 29.2162 4.94752 28.6091V11.6154C6.2551 11.1594 7.19627 9.91467 7.19627 8.45358V1.69074Z" fill="#73492A"/>
</g>

</symbol><symbol id="icon-house" viewBox="0 0 31 30">
<g clip-path="url(#clip0)">
<path d="M15.5001 8.96252L5.1814 16.9025V27.5401H13.4728V19.7445H17.8776V27.5401H25.8189V16.9025L15.5001 8.96252Z" fill="#73492A"/>
<path d="M26.2509 10.7303V5.29138H21.9052V7.38728L15.5 2.45984L0.5 13.9991L2.57064 16.6907L15.5 6.74187L28.4294 16.6907L30.5 13.9992L26.2509 10.7303Z" fill="#73492A"/>
</g>

</symbol><symbol id="icon-mount" viewBox="0 0 31 30">
<g clip-path="url(#clip0)">
<path d="M17.4062 7.32422C19.0217 7.32422 20.3359 6.00998 20.3359 4.39453C20.3359 2.77908 19.0217 1.46484 17.4062 1.46484C15.7908 1.46484 14.4766 2.77908 14.4766 4.39453C14.4766 6.00998 15.7908 7.32422 17.4062 7.32422Z" fill="#73492A"/>
<path d="M19.2764 16.4613L23.1564 23.166H28.8967L24.5125 15.5721L20.9337 17.2281L19.2764 16.4613Z" fill="#73492A"/>
<path d="M16.0383 14.3756L11.6772 16.3934L7.25703 14.3484L2.16602 23.1661H21.1254L16.0383 14.3756Z" fill="#73492A"/>
<path d="M15.1542 12.8478L11.6347 6.76599L8.1394 12.8197L11.6772 14.4566L15.1542 12.8478Z" fill="#73492A"/>
<path d="M0.5 24.9238H30.5V28.5351H0.5V24.9238Z" fill="#73492A"/>
<path d="M20.9335 15.2914L23.63 14.0437L20.9335 9.37341L18.2371 14.0437L20.9335 15.2914Z" fill="#73492A"/>
</g>

</symbol><symbol id="icon-parking" viewBox="0 0 31 30">
<g clip-path="url(#clip0)">
<path d="M15.2342 9.78015C14.4729 9.78015 13.9709 9.85327 13.6816 9.92705V14.8106C14.012 14.8844 14.3998 14.9086 14.9397 14.9086C16.9278 14.9086 18.1545 13.9018 18.1545 12.2095C18.1552 10.6877 17.0988 9.78015 15.2342 9.78015Z" fill="#73492A"/>
<path d="M26.616 0H4.38397C2.42075 0 0.830322 1.59108 0.830322 3.55364V26.447C0.830322 28.4096 2.4214 30 4.38397 30H26.616C28.5792 30 30.1689 28.4089 30.1689 26.447V3.55364C30.1696 1.59042 28.5792 0 26.616 0ZM27.9798 25.877C27.9798 26.9458 27.1141 27.8102 26.0466 27.8102H4.9128C3.84469 27.8102 2.97896 26.9445 2.97896 25.877V4.16474C2.97896 3.09728 3.84469 2.23156 4.9128 2.23156H26.046C27.1141 2.23156 27.9792 3.09728 27.9792 4.16474L27.9798 25.877Z" fill="#73492A"/>
<path d="M26.0461 3.59546H4.91291C4.59822 3.59546 4.34229 3.85008 4.34229 4.16543V25.8777C4.34229 26.1911 4.59756 26.4477 4.91291 26.4477H26.0461C26.3601 26.4477 26.6161 26.1918 26.6161 25.8777V4.16477C26.6161 3.85008 26.3608 3.59546 26.0461 3.59546ZM20.3445 16.0388C19.0694 17.2407 17.1734 17.7807 14.964 17.7807C14.4737 17.7807 14.0539 17.7558 13.6818 17.7069V23.6364H10.0041V7.30122C11.161 7.10471 12.7697 6.95716 15.0522 6.95716C17.3595 6.95716 18.9995 7.39916 20.1049 8.28316C21.1593 9.11689 21.8696 10.4919 21.8696 12.111C21.8696 13.7321 21.3277 15.1071 20.3445 16.0388Z" fill="#73492A"/>
</g>

</symbol><symbol id="icon-pool" viewBox="0 0 31 30">
<g clip-path="url(#clip0)">
<path d="M23.8167 17.3192C26.5116 17.3192 28.6962 15.1346 28.6962 12.4398C28.6962 9.74491 26.5116 7.5603 23.8167 7.5603C21.1219 7.5603 18.9373 9.74491 18.9373 12.4398C18.9373 15.1346 21.1219 17.3192 23.8167 17.3192Z" fill="#73492A"/>
<path d="M13.3059 13.3505L7.19613 17.7273C7.46062 17.6731 7.75142 17.6398 8.07587 17.6398C9.54022 17.6398 10.3519 18.2896 10.889 18.7196C11.2825 19.0348 11.4151 19.1409 11.8256 19.1409C12.2361 19.1409 12.3687 19.0347 12.7623 18.7196C13.2993 18.2896 14.111 17.6398 15.5754 17.6398C17.0397 17.6398 17.8514 18.2896 18.3886 18.7196C18.7822 19.0348 18.9149 19.1409 19.3254 19.1409C19.7359 19.1409 19.8686 19.0347 20.2621 18.7196C20.4411 18.5763 20.6516 18.4087 20.9057 18.2487L16.6335 11.0295L10.7962 6.67261L4.12742 8.56426L3.28857 12.412L10.2236 11.0499L13.3059 13.3505Z" fill="#73492A"/>
<path d="M27.6866 19.904C27.293 20.2192 27.1602 20.3253 26.7495 20.3253C26.3389 20.3253 26.2062 20.2191 25.8125 19.904C25.2754 19.474 24.4636 18.8242 22.9992 18.8242C21.5347 18.8242 20.7231 19.474 20.186 19.904C19.7925 20.2192 19.6598 20.3253 19.2493 20.3253C18.8386 20.3253 18.7062 20.2191 18.3125 19.904C17.7754 19.474 16.9637 18.8242 15.4993 18.8242C14.0349 18.8242 13.2233 19.474 12.6861 19.904C12.2926 20.2192 12.16 20.3253 11.7495 20.3253C11.3389 20.3253 11.2064 20.2191 10.8129 19.904C10.2758 19.474 9.46411 18.8242 7.99976 18.8242C6.53541 18.8242 5.7237 19.474 5.18657 19.904C4.79299 20.2192 4.66041 20.3253 4.24982 20.3253C3.83929 20.3253 3.70671 20.2191 3.31313 19.904C2.77606 19.474 1.96435 18.8242 0.5 18.8242V21.8264C0.910528 21.8264 1.04311 21.9326 1.43669 22.2476C1.97376 22.6777 2.78547 23.3275 4.24982 23.3275C5.71423 23.3275 6.52588 22.6777 7.06301 22.2477C7.45653 21.9325 7.58917 21.8264 7.99976 21.8264C8.41029 21.8264 8.54287 21.9326 8.93639 22.2476C9.47346 22.6777 10.2852 23.3275 11.7495 23.3275C13.2139 23.3275 14.0255 22.6777 14.5627 22.2476C14.9562 21.9325 15.0888 21.8264 15.4993 21.8264C15.91 21.8264 16.0425 21.9326 16.4361 22.2477C16.9732 22.6777 17.7849 23.3275 19.2494 23.3275C20.7136 23.3275 21.5253 22.6777 22.0625 22.2476C22.4561 21.9325 22.5886 21.8264 22.9993 21.8264C23.4099 21.8264 23.5426 21.9327 23.9362 22.2477C24.4733 22.6777 25.2851 23.3275 26.7496 23.3275C28.2142 23.3275 29.0258 22.6777 29.563 22.2477C29.9567 21.9325 30.0894 21.8264 30.5 21.8264V18.8242C29.0355 18.8242 28.2238 19.474 27.6866 19.904Z" fill="#73492A"/>
</g>

</symbol><symbol id="icon-room" viewBox="0 0 31 30">
<g clip-path="url(#clip0)">
<path d="M22.529 22.6875H7.35484V28.1102C7.35484 28.1369 7.3537 28.1635 7.35278 28.19H22.5311C22.5302 28.1635 22.529 28.1369 22.529 28.1102V22.6875Z" fill="#73492A"/>
<path d="M1.3773 8.91129H17.3954C17.8799 8.91129 18.2727 8.51852 18.2727 8.03398V2.10777C18.2727 1.62323 17.8799 1.23047 17.3954 1.23047H1.3773C0.892761 1.23047 0.5 1.62323 0.5 2.10777V8.03398C0.5 8.51852 0.892761 8.91129 1.3773 8.91129Z" fill="#73492A"/>
<path d="M26.893 14.4134V17.185H27.3917V10.0658H29.6226C29.8916 10.0658 30.1456 9.94245 30.312 9.73119C30.4784 9.5197 30.5386 9.24367 30.4754 8.98229L29.1337 3.43671C29.0385 3.04303 28.6863 2.76562 28.2811 2.76562H24.7477C24.3428 2.76562 23.9903 3.04303 23.8951 3.43671L22.5534 8.98229C22.4902 9.24367 22.5504 9.5197 22.7168 9.73119C22.8832 9.94245 23.1372 10.0658 23.4062 10.0658H25.6371V12.1708C26.3899 12.6346 26.893 13.4663 26.893 14.4134Z" fill="#73492A"/>
<path d="M22.529 20.9327V19.6045C22.529 18.2703 23.6144 17.185 24.9485 17.185H25.1383V14.4134C25.1383 13.9296 24.7448 13.5361 24.261 13.5361H5.62267C5.13904 13.5361 4.74536 13.9296 4.74536 14.4134V17.185H4.9351C6.26926 17.185 7.35461 18.2703 7.35461 19.6045V20.9327H22.529Z" fill="#73492A"/>
<path d="M5.60002 19.6044C5.60002 19.2379 5.30179 18.9395 4.93512 18.9395H1.80333C1.43666 18.9395 1.13843 19.2379 1.13843 19.6044V28.1101C1.13843 28.4767 1.43666 28.775 1.80333 28.775H4.93512C5.30179 28.775 5.60002 28.4767 5.60002 28.1101V19.6044Z" fill="#73492A"/>
<path d="M28.7453 28.1101V19.6044C28.7453 19.2379 28.4468 18.9395 28.0801 18.9395H24.9483C24.5817 18.9395 24.2834 19.2379 24.2834 19.6044V28.1101C24.2834 28.4767 24.5817 28.775 24.9483 28.775H28.0801C28.4468 28.775 28.7453 28.4767 28.7453 28.1101Z" fill="#73492A"/>
</g>

</symbol><symbol id="icon-sauna" viewBox="0 0 31 30">
<g clip-path="url(#clip0)">
<path d="M7.58206 3.82141C5.66569 3.82141 4.10669 5.38047 4.10669 7.29678C4.10669 9.21309 5.66575 10.7721 7.58206 10.7721C9.49837 10.7721 11.0574 9.21315 11.0574 7.29678C11.0574 5.38041 9.49843 3.82141 7.58206 3.82141Z" fill="#73492A"/>
<path d="M22.1857 27.1269L19.0742 18.3515H13.0448L10.2839 11.7985H5.77813L2.3423 21.1433C2.20344 21.521 2.17455 21.9242 2.24938 22.3086H0.5V24.0664H9.54922H10.0784H15.3785L18.3088 28.954C18.7084 29.6206 19.4217 29.9999 20.159 29.9999C20.4505 29.9999 20.7458 29.9406 21.0269 29.8163C22.0508 29.3635 22.5598 28.1822 22.1857 27.1269ZM6.68428 22.3086L7.73094 20.6306L8.61898 22.3086H6.68428Z" fill="#73492A"/>
<path d="M21.5766 6.60136C21.5766 5.48737 21.1261 4.87606 20.7971 4.4297C20.5248 4.0602 20.3604 3.83714 20.3604 3.30089C20.3604 2.76458 20.5248 2.54157 20.7971 2.17196C21.126 1.7256 21.5766 1.11429 21.5766 0.000244141H19.8188C19.8188 0.536494 19.6544 0.759561 19.3821 1.12911C19.0531 1.57548 18.6025 2.18679 18.6025 3.30083C18.6025 4.41481 19.0531 5.02612 19.3821 5.47249C19.6544 5.84198 19.8188 6.06505 19.8188 6.6013C19.8188 7.13772 19.6544 7.36079 19.382 7.7304C19.0531 8.17694 18.6025 8.78831 18.6025 9.90241C18.6025 11.0165 19.053 11.6279 19.382 12.0742C19.6544 12.4439 19.8188 12.667 19.8188 13.2034H21.5766C21.5766 12.0892 21.1261 11.4779 20.7971 11.0315C20.5248 10.6618 20.3604 10.4388 20.3604 9.90235C20.3604 9.36593 20.5248 9.14292 20.7971 8.77325C21.1261 8.32683 21.5766 7.71546 21.5766 6.60136Z" fill="#73492A"/>
<path d="M26.0382 6.60118C26.0382 5.4872 25.5877 4.87589 25.2587 4.42952C24.9864 4.06003 24.822 3.83696 24.822 3.30071C24.822 2.7644 24.9864 2.5414 25.2588 2.17179C25.5877 1.7256 26.0382 1.11429 26.0382 0.000244141H24.2804C24.2804 0.536494 24.116 0.759561 23.8437 1.12911C23.5148 1.57548 23.0642 2.18679 23.0642 3.30083C23.0642 4.41481 23.5147 5.02612 23.8437 5.47249C24.116 5.84198 24.2804 6.06505 24.2804 6.6013C24.2804 7.13773 24.116 7.36079 23.8437 7.7304C23.5147 8.17683 23.0642 8.78819 23.0642 9.90224C23.0642 11.0163 23.5147 11.6277 23.8437 12.0741C24.116 12.4437 24.2804 12.6668 24.2804 13.2032H26.0382C26.0382 12.0891 25.5878 11.4777 25.2588 11.0313C24.9864 10.6617 24.822 10.4386 24.822 9.90218C24.822 9.36575 24.9864 9.14275 25.2588 8.77308C25.5877 8.32665 26.0382 7.71528 26.0382 6.60118Z" fill="#73492A"/>
<path d="M30.4999 6.60136C30.4999 5.48737 30.0494 4.87606 29.7204 4.4297C29.4481 4.06021 29.2837 3.83714 29.2837 3.30089C29.2837 2.76458 29.4481 2.54157 29.7204 2.17196C30.0494 1.7256 30.4999 1.11429 30.4999 0.000244141H28.7421C28.7421 0.536494 28.5777 0.759561 28.3054 1.12911C27.9765 1.57548 27.5259 2.18679 27.5259 3.30083C27.5259 4.41481 27.9764 5.02612 28.3054 5.47249C28.5777 5.84198 28.7421 6.06505 28.7421 6.6013C28.7421 7.13773 28.5777 7.36079 28.3054 7.7304C27.9764 8.17683 27.5259 8.78819 27.5259 9.90224C27.5259 11.0163 27.9763 11.6277 28.3054 12.0741C28.5777 12.4437 28.7421 12.6668 28.7421 13.2032H30.4999C30.4999 12.0891 30.0495 11.4777 29.7205 11.0313C29.4481 10.6617 29.2837 10.4386 29.2837 9.90218C29.2837 9.36575 29.4481 9.14275 29.7205 8.77308C30.0495 8.32683 30.4999 7.71546 30.4999 6.60136Z" fill="#73492A"/>
</g>

</symbol><symbol id="icon-wifi" viewBox="0 0 31 30">
<g clip-path="url(#clip0)">
<path d="M23.4992 17.2542C23.7694 17.5269 23.8342 17.9476 23.6491 18.2841C23.013 19.4403 21.42 19.9526 20.217 19.0614C17.4092 16.9796 13.5598 17.0031 10.7837 19.0614C9.58231 19.9515 7.98815 19.4413 7.35161 18.2842C7.16652 17.9478 7.23108 17.527 7.50143 17.2543C11.9058 12.8097 19.09 12.8044 23.4992 17.2542Z" fill="#73492A"/>
<path d="M24.6401 15.9334C19.5062 10.8887 11.4224 10.9629 6.36062 15.9333C6.14066 16.1493 5.82515 16.2386 5.52644 16.1626C4.60052 15.9269 3.90415 15.1343 3.81592 14.1761C3.79166 13.913 3.88898 13.6527 4.07817 13.4682C10.4422 7.26336 20.5658 7.27086 26.9224 13.4682C27.1115 13.6526 27.2089 13.9129 27.1847 14.1759C27.0963 15.1329 26.4014 15.9266 25.4745 16.1625C25.1757 16.2386 24.86 16.1494 24.6401 15.9334Z" fill="#73492A"/>
<path d="M29.8261 12.2981C29.7498 12.3736 29.6709 12.4426 29.5901 12.5055C29.2426 12.7756 28.7449 12.7373 28.4358 12.424C21.32 5.21159 9.68765 5.20837 2.56184 12.4275C2.2448 12.7487 1.73405 12.776 1.38438 12.4907C1.32748 12.4442 1.27235 12.3947 1.21927 12.3421C0.172229 11.3091 0.331013 9.79453 1.29075 8.97541C9.45259 2.00885 21.5448 2.00592 29.7101 8.97541C30.7179 9.83548 30.7665 11.3665 29.8261 12.2981Z" fill="#73492A"/>
<path d="M15.5004 26.2506C16.7948 26.2506 17.8441 25.2013 17.8441 23.9069C17.8441 22.6125 16.7948 21.5632 15.5004 21.5632C14.206 21.5632 13.1567 22.6125 13.1567 23.9069C13.1567 25.2013 14.206 26.2506 15.5004 26.2506Z" fill="#73492A"/>
</g>

</symbol><symbol id="pets" viewBox="0 0 35 35">
<path d="M12.3295 19.7979C12.8436 19.2831 13.1256 18.5033 13.1248 17.604C13.1248 17.2843 13.0885 16.9524 13.0166 16.6178C12.5957 14.6588 11.0876 13.125 9.58223 13.125C8.89009 13.125 8.27773 13.4405 7.85759 14.013C7.4866 14.5178 7.29075 15.1836 7.29151 15.9377C7.29151 16.2567 7.3278 16.5878 7.39972 16.9233V16.9239C7.82054 18.8828 9.32875 20.4167 10.8341 20.4167C11.408 20.4167 11.925 20.2023 12.3295 19.7979Z" fill="#73492A"/>
<path d="M25.4176 13.125C23.9122 13.125 22.4041 14.6588 21.9832 16.6178C21.9113 16.9524 21.875 17.2843 21.875 17.6033C21.8743 18.5034 22.1563 19.2831 22.6704 19.7979C23.0748 20.2024 23.5918 20.4167 24.1657 20.4167C25.6711 20.4167 27.1792 18.8828 27.6001 16.9239V16.9233C27.672 16.5879 27.7083 16.2567 27.7083 15.9385C27.709 15.1836 27.5132 14.5179 27.1422 14.013C26.7221 13.4405 26.1097 13.125 25.4176 13.125Z" fill="#73492A"/>
<path d="M23.9775 11.0729V11.0722C24.0274 10.8087 24.0544 10.5531 24.0609 10.3074C24.0851 9.34604 23.7995 8.50863 23.2555 7.95041C22.8347 7.51886 22.2971 7.29102 21.6997 7.29102C20.1751 7.29102 18.6875 8.83266 18.3138 10.8015C18.2639 11.065 18.2369 11.3207 18.2304 11.5664C18.2062 12.5277 18.4918 13.3651 19.0358 13.9233C19.4566 14.3549 19.9942 14.5827 20.5916 14.5827C22.1162 14.5826 23.6037 13.041 23.9775 11.0729Z" fill="#73492A"/>
<path d="M17.5 0C7.85066 0 0 7.85066 0 17.5C0 27.1493 7.85066 35 17.5 35C27.1493 35 35 27.1493 35 17.5C35 7.85066 27.1493 0 17.5 0ZM17.5 32.0833C9.45854 32.0833 2.91669 25.5415 2.91669 17.5C2.91669 14.0033 4.1557 10.7922 6.21496 8.27709L14.9731 17.0352C14.3048 17.716 13.9672 18.6053 13.7296 19.2616C13.625 19.55 13.4954 19.9096 13.4056 20.0164C13.1072 20.376 12.7405 20.7093 12.3517 21.0618C11.3584 21.9626 10.2326 22.9837 10.2084 24.6492C10.1963 25.5308 10.4683 26.2799 10.9959 26.8154C11.572 27.3993 12.4251 27.7084 13.4619 27.7084C14.629 27.7084 15.3638 27.3203 15.9541 27.0084C16.4597 26.7414 16.8584 26.5305 17.4993 26.5305C18.1409 26.5305 18.5404 26.7413 19.0459 27.0084C19.6362 27.3203 20.3718 27.7084 21.5382 27.7084C22.575 27.7084 23.4281 27.3993 24.0041 26.8154C24.1296 26.6881 24.2383 26.547 24.3344 26.3966L26.7229 28.7851C24.2078 30.8443 20.9967 32.0833 17.5 32.0833ZM28.7851 26.7229L21.2388 19.1766C20.8415 18.0819 20.1743 16.4218 18.1709 16.1087L15.9737 13.9115C16.5106 13.3532 16.7934 12.5219 16.7694 11.5684C16.763 11.3213 16.7359 11.0657 16.6861 10.8015C16.3123 8.83326 14.8248 7.29162 13.3002 7.29162C12.7027 7.29162 12.1652 7.51946 11.7443 7.95102C11.457 8.24585 11.2472 8.62196 11.1117 9.04941L8.27716 6.21489C10.7922 4.1557 14.0033 2.91669 17.5 2.91669C25.5415 2.91669 32.0833 9.45854 32.0833 17.5C32.0833 20.9967 30.8443 24.2078 28.7851 26.7229Z" fill="#73492A"/>
</symbol><symbol id="smoke" viewBox="0 0 35 35">
<path d="M24.7917 11.667C23.9878 11.667 23.3334 11.0126 23.3334 10.2087C23.3334 8.60012 22.0253 7.29199 20.4167 7.29199H18.2292C17.8261 7.29199 17.5 7.61813 17.5 8.02118C17.5 8.42423 17.8261 8.75037 18.2292 8.75037H20.4167C21.2206 8.75037 21.875 9.40478 21.875 10.2087C21.875 11.8172 23.1831 13.1253 24.7917 13.1253C25.5956 13.1253 26.25 13.7797 26.25 14.5836V16.7711C26.25 17.1742 26.5761 17.5003 26.9792 17.5003C27.3822 17.5003 27.7084 17.1742 27.7084 16.7711V14.5836C27.7083 12.975 26.4003 11.667 24.7917 11.667Z" fill="#73492A"/>
<path d="M24.0626 16.0414H22.6043C22.202 16.0414 21.8751 15.7146 21.8751 15.3122C21.8751 14.1059 20.8938 13.1247 19.6876 13.1247C19.2853 13.1247 18.9584 12.7979 18.9584 12.3955V10.9372C18.9584 10.5342 18.6322 10.208 18.2292 10.208C17.8261 10.208 17.5 10.5342 17.5 10.9372V12.3955C17.5 13.6018 18.4812 14.583 19.6875 14.583C20.0898 14.583 20.4167 14.9098 20.4167 15.3122C20.4167 16.5185 21.3979 17.4997 22.6042 17.4997H24.0626C24.4656 17.4997 24.7918 17.1736 24.7918 16.7705C24.7918 16.3675 24.4656 16.0414 24.0626 16.0414Z" fill="#73492A"/>
<path d="M17.5 0C7.85066 0 0 7.85066 0 17.5C0 27.1493 7.85066 35 17.5 35C27.1493 35 35 27.1493 35 17.5C35 7.85066 27.1493 0 17.5 0ZM17.5 32.0833C9.45854 32.0833 2.91669 25.5415 2.91669 17.5C2.91669 14.0033 4.1557 10.7922 6.21496 8.27709L16.8962 18.9583H8.02081C7.61776 18.9583 7.29162 19.2845 7.29162 19.6875V22.6042C7.29162 23.0072 7.61776 23.3334 8.02081 23.3334H21.2711L26.7228 28.7851C24.2078 30.8443 20.9967 32.0833 17.5 32.0833ZM28.7851 26.7229L25.3955 23.3333H26.9792C27.3822 23.3333 27.7084 23.0072 27.7084 22.6041V19.6875C27.7084 19.2845 27.3822 18.9583 26.9792 18.9583H21.0205L8.27709 6.21489C10.7922 4.1557 14.0033 2.91669 17.5 2.91669C25.5415 2.91669 32.0833 9.45854 32.0833 17.5C32.0833 20.9967 30.8443 24.2078 28.7851 26.7229ZM24.7917 21.875V20.4167H26.25V21.875H24.7917Z" fill="#73492A"/>
</symbol><symbol id="social-facebook" viewBox="0 0 10 19">
<path d="M5.89996 18.2998V10.0998H8.59998L9 6.8998H6V4.8998C6 3.9998 6.2 3.2998 7.5 3.2998H9.09998V0.399803C8.29998 0.299803 7.50001 0.299805 6.70001 0.299805C4.30001 0.299805 2.70001 1.79981 2.70001 4.49981V6.8998H0V10.0998H2.70001V18.2998H5.89996Z" fill="#73492A"/>
</symbol><symbol id="social-instagram" viewBox="0 0 18 19">
<path d="M9 0.299805C11.4 0.299805 11.8 0.299803 12.7 0.399803C13.7 0.399803 14.3 0.599805 14.9 0.799805C15.5 0.999805 16 1.3998 16.5 1.7998C17 2.1998 17.3 2.7998 17.5 3.3998C17.7 3.9998 17.9 4.59981 17.9 5.59981C17.9 6.59981 18 6.8998 18 9.2998C18 11.7998 18 12.0998 17.9 12.9998C17.9 13.9998 17.7 14.5998 17.5 15.1998C17.3 15.7998 16.9 16.2998 16.5 16.7998C16 17.2998 15.5 17.5998 14.9 17.7998C14.3 17.9998 13.7 18.1998 12.7 18.1998C11.7 18.1998 11.4 18.2998 9 18.2998C6.6 18.2998 6.19999 18.2998 5.29999 18.1998C4.29999 18.1998 3.69998 17.9998 3.09998 17.7998C2.49998 17.5998 2 17.1998 1.5 16.7998C1 16.2998 0.7 15.7998 0.5 15.1998C0.3 14.5998 0.0999756 13.9998 0.0999756 12.9998C-2.44156e-05 11.9998 0 11.6998 0 9.2998C0 6.8998 -2.44156e-05 6.49981 0.0999756 5.59981C0.0999756 4.59981 0.3 3.9998 0.5 3.3998C0.7 2.7998 1.1 2.2998 1.5 1.7998C2 1.3998 2.49998 0.999805 3.09998 0.799805C3.69998 0.599805 4.29999 0.399803 5.29999 0.399803C6.29999 0.299803 6.6 0.299805 9 0.299805ZM13.8 2.3998C13.4 2.3998 13.1 2.5998 12.9 2.8998C12.7 3.1998 12.7 3.59981 12.9 3.99981C13.1 4.29981 13.4 4.49981 13.8 4.49981C14.4 4.49981 14.9 3.9998 14.9 3.3998C14.9 2.7998 14.4 2.3998 13.8 2.3998ZM9 4.59981C6.4 4.59981 4.39996 6.69981 4.39996 9.19981C4.39996 11.7998 6.5 13.7998 9 13.7998C11.6 13.7998 13.6 11.6998 13.6 9.19981C13.6 6.69981 11.6 4.59981 9 4.59981ZM9 6.2998C10.1 6.2998 11.1 6.7998 11.6 7.7998C12.1 8.6998 12.1 9.89981 11.6 10.7998C11 11.6998 10 12.2998 9 12.2998C7.4 12.2998 6.09998 10.8998 6.09998 9.2998C6.09998 7.5998 7.4 6.2998 9 6.2998Z" fill="#73492A"/>
</symbol><symbol id="social-mail" viewBox="0 0 16 13">
<path d="M14.4166 0.833496H2.41663C1.59163 0.833496 0.924126 1.5085 0.924126 2.3335L0.916626 11.3335C0.916626 12.1585 1.59163 12.8335 2.41663 12.8335H14.4166C15.2416 12.8335 15.9166 12.1585 15.9166 11.3335V2.3335C15.9166 1.5085 15.2416 0.833496 14.4166 0.833496ZM14.4166 3.8335L8.41663 7.5835L2.41663 3.8335V2.3335L8.41663 6.0835L14.4166 2.3335V3.8335Z" fill="#73492A"/>
</symbol><symbol id="social-telegram" viewBox="0 0 16 14">
<path d="M1.01303 6.28056L4.4616 7.56647L5.80595 11.8918C5.8644 12.184 6.2151 12.2425 6.4489 12.0671L8.37775 10.489C8.5531 10.3136 8.84536 10.3136 9.07916 10.489L12.5277 13.0023C12.7615 13.1777 13.1122 13.0608 13.1707 12.7685L15.7425 0.493992C15.8009 0.201741 15.5087 -0.0905074 15.2164 0.0263929L1.01303 5.52071C0.662325 5.63761 0.662325 6.16366 1.01303 6.28056ZM5.6306 6.92351L12.4108 2.77355C12.5277 2.7151 12.6446 2.89045 12.5277 2.9489L6.97495 8.15097C6.7996 8.32632 6.62425 8.56012 6.62425 8.85237L6.4489 10.2552C6.4489 10.4305 6.15665 10.489 6.0982 10.2552L5.39679 7.68336C5.22144 7.39111 5.33835 7.04041 5.6306 6.92351Z" fill="#73492A"/>
</symbol><symbol id="social-viber" viewBox="0 0 17 18">
<path d="M12.6904 0.909435C9.83181 0.363522 6.86322 0.363522 4.00458 0.909435C2.74018 1.18239 1.14594 2.71095 0.871073 3.91196C0.376309 6.25939 0.376309 8.66141 0.871073 11.0088C1.20092 12.2098 2.79516 13.7384 4.00458 14.0114C4.05955 14.0114 4.11453 14.066 4.11453 14.1205V17.5598C4.11453 17.7236 4.33442 17.8328 4.44437 17.669L6.09359 15.9767C6.09359 15.9767 7.41296 14.6119 7.63285 14.3935C7.63285 14.3935 7.68783 14.3389 7.7428 14.3389C9.39202 14.3935 11.0962 14.2297 12.7454 13.9568C14.0098 13.6838 15.6041 12.1553 15.8789 10.9542C16.3737 8.60682 16.3737 6.2048 15.8789 3.85737C15.5491 2.71095 13.9548 1.18239 12.6904 0.909435ZM12.7454 11.1726C12.4706 11.7185 12.1407 12.1553 11.591 12.4282C11.426 12.4828 11.2611 12.5374 11.0962 12.592C10.8763 12.5374 10.7114 12.4828 10.5465 12.4282C8.7873 11.7185 7.13809 10.7359 5.81872 9.31651C5.10406 8.49764 4.49934 7.56958 4.00458 6.58694C3.78468 6.09562 3.56479 5.65888 3.39987 5.16756C3.23495 4.73083 3.50981 4.2941 3.78468 3.96655C4.05955 3.639 4.3894 3.42064 4.77421 3.25686C5.04908 3.09309 5.32395 3.20227 5.54385 3.42064C5.98364 3.96655 6.42343 4.51246 6.75327 5.11297C6.97317 5.49511 6.91819 5.93184 6.53338 6.2048C6.42343 6.25939 6.36845 6.31398 6.25851 6.42316C6.20353 6.47776 6.09358 6.53235 6.03861 6.64153C5.92866 6.8053 5.92866 6.96908 5.98364 7.13285C6.42343 8.38845 7.24803 9.3711 8.51243 9.91701C8.73233 10.0262 8.89725 10.0808 9.17212 10.0808C9.55694 10.0262 9.72186 9.58946 9.99673 9.3711C10.2716 9.15273 10.6014 9.15273 10.9313 9.31651C11.2062 9.48028 11.481 9.69864 11.8109 9.91701C12.0857 10.1354 12.3606 10.2992 12.6355 10.5175C12.8004 10.6267 12.8554 10.8997 12.7454 11.1726ZM10.4365 7.07826C10.3266 7.07826 10.3815 7.07826 10.4365 7.07826C10.2166 7.07826 10.1616 6.96908 10.1067 6.8053C10.1067 6.69612 10.1067 6.53235 10.0517 6.42316C9.99673 6.2048 9.88678 5.98643 9.66689 5.82266C9.55694 5.76807 9.44699 5.71347 9.33704 5.65888C9.17212 5.60429 9.06217 5.60429 8.89725 5.60429C8.73233 5.5497 8.67736 5.44052 8.67736 5.27674C8.67736 5.16756 8.84228 5.05838 8.95222 5.05838C9.83181 5.11297 10.4915 5.60429 10.6014 6.64153C10.6014 6.69612 10.6014 6.8053 10.6014 6.85989C10.6014 6.96908 10.5465 7.07826 10.4365 7.07826ZM9.88678 4.67624C9.61191 4.56706 9.33704 4.45787 9.0072 4.40328C8.89725 4.40328 8.73233 4.34869 8.62238 4.34869C8.45746 4.34869 8.34751 4.23951 8.40249 4.07573C8.40249 3.91196 8.51243 3.80278 8.67736 3.85737C9.22709 3.91196 9.72186 4.02114 10.2166 4.23951C11.2062 4.73083 11.7559 5.5497 11.9208 6.64153C11.9208 6.69612 11.9208 6.75071 11.9208 6.8053C11.9208 6.91449 11.9208 7.02367 11.9208 7.18744C11.9208 7.24203 11.9208 7.29663 11.9208 7.35122C11.8658 7.56958 11.481 7.62417 11.426 7.35122C11.426 7.29663 11.3711 7.18744 11.3711 7.13285C11.3711 6.64153 11.2611 6.15021 11.0412 5.71348C10.7114 5.22215 10.3266 4.8946 9.88678 4.67624ZM12.8554 7.95172C12.6904 7.95172 12.5805 7.78795 12.5805 7.62417C12.5805 7.29663 12.5255 6.96908 12.4705 6.64153C12.2507 4.8946 10.8213 3.47523 9.11715 3.20227C8.84228 3.14768 8.56741 3.14768 8.34751 3.09309C8.18259 3.09309 7.96269 3.09309 7.90772 2.87472C7.85275 2.71095 8.01767 2.54718 8.18259 2.54718C8.23756 2.54718 8.29254 2.54718 8.29254 2.54718C10.5465 2.60177 8.40249 2.54718 8.29254 2.54718C10.6014 2.60177 12.5255 4.13033 12.9103 6.42316C12.9653 6.8053 13.0203 7.18744 13.0203 7.62417C13.1302 7.78795 13.0203 7.95172 12.8554 7.95172Z" fill="#73492A"/>
</symbol><symbol id="social-youtube" viewBox="0 0 20 14">
<path d="M19.4 2.7001C19.2 1.9001 18.5 1.2001 17.7 1.0001C16.2 0.600099 10.3 0.600098 10.3 0.600098C10.3 0.600098 4.39998 0.600099 2.89998 1.0001C2.09998 1.2001 1.39997 1.9001 1.19997 2.7001C0.799967 5.3001 0.599967 9.30009 1.19997 11.8001C1.39997 12.6001 2.09998 13.3001 2.89998 13.5001C4.39998 13.9001 10.3 13.9001 10.3 13.9001C10.3 13.9001 16.2 13.9001 17.7 13.5001C18.5 13.3001 19.2 12.6001 19.4 11.8001C19.9 9.20009 20 5.2001 19.4 2.7001ZM8.39998 10.1001V4.40009L13.3 7.30009L8.39998 10.1001Z" fill="#73492A"/>
</symbol><symbol id="square" viewBox="0 0 35 35">
<g clip-path="url(#clip0_611:862)">
<rect x="7.875" y="3.5" width="22.75" height="23.625" fill="#73492A"/>
<path d="M33.9979 27.4561C35.3307 28.7889 35.3307 30.9571 33.9979 32.2899C33.9961 32.292 33.9939 32.2939 33.9918 32.296L31.6532 34.6055C31.3867 34.8685 31.0395 34.9999 30.6927 34.9999C30.3396 34.9999 29.9872 34.8643 29.7196 34.5935C29.1893 34.0562 29.1946 33.1905 29.7319 32.66L31.1001 31.3085H9.15923C6.14368 31.3085 3.69049 28.8553 3.69049 25.8398V3.86577L2.32651 5.21159C1.78898 5.74191 0.923273 5.73603 0.392955 5.19851C-0.137363 4.66098 -0.131488 3.79527 0.406039 3.26495L2.71583 0.986402C4.04483 -0.324706 6.20723 -0.324706 7.53623 0.986402L9.84602 3.26495C10.3836 3.79527 10.3894 4.66098 9.85911 5.19851C9.59155 5.46954 9.2388 5.60546 8.88579 5.60546C8.53892 5.60546 8.19205 5.47435 7.92556 5.21159L6.42486 3.73092V25.8398C6.42486 27.3474 7.65158 28.5742 9.15923 28.5742H31.2387L29.7319 27.086C29.1946 26.5554 29.189 25.6897 29.7196 25.1525C30.2502 24.6155 31.1159 24.6099 31.6532 25.1404L33.9918 27.45C33.9939 27.4521 33.9961 27.454 33.9979 27.4561ZM30.8975 0H13.1924C12.4354 0 11.8226 0.615233 11.8252 1.37226C11.8282 2.12528 12.4394 2.73437 13.1924 2.73437H30.8975C31.6526 2.73437 32.2646 3.3464 32.2646 4.10155V21.875C32.2646 22.628 32.8737 23.2395 33.6268 23.2421C34.3838 23.2448 34.999 22.632 34.999 21.875V4.10155C34.999 1.83635 33.1627 0 30.8975 0ZM20.0967 23.4397C20.8519 23.4397 21.4639 22.8277 21.4639 22.0726V15.9875C21.4639 13.9143 19.7773 12.2278 17.7041 12.2278C16.796 12.2278 15.962 12.5514 15.3116 13.0895C14.6611 12.5514 13.8271 12.2278 12.919 12.2278C12.3975 12.2278 11.9003 12.3348 11.4485 12.5276C11.2052 12.3049 10.8821 12.1679 10.5264 12.1679C9.77125 12.1679 9.15923 12.78 9.15923 13.5351V22.08C9.15923 22.8352 9.77125 23.4472 10.5264 23.4472C11.2816 23.4472 11.8936 22.8352 11.8936 22.08V15.9875C11.8936 15.4222 12.3537 14.9621 12.919 14.9621C13.4843 14.9621 13.9444 15.4222 13.9444 15.9875V22.08C13.9444 22.8352 14.5564 23.4472 15.3116 23.4472C16.0667 23.4472 16.6787 22.8352 16.6787 22.08V15.9875C16.6787 15.4222 17.1388 14.9621 17.7041 14.9621C18.2694 14.9621 18.7295 15.4222 18.7295 15.9875V22.0726C18.7295 22.8277 19.3415 23.4397 20.0967 23.4397ZM26.3003 7.3828C26.2931 7.3828 26.2862 7.38386 26.2789 7.38386C26.272 7.38386 26.2651 7.3828 26.2578 7.3828C24.5192 7.3828 23.1045 8.79912 23.1045 10.5399C23.1045 11.2948 23.7165 11.9071 24.4717 11.9071C25.2269 11.9071 25.8389 11.2948 25.8389 10.5399C25.8389 10.3108 26.0309 10.1172 26.2578 10.1172C26.2651 10.1172 26.272 10.1161 26.2792 10.1161C26.2862 10.1161 26.2931 10.1172 26.3003 10.1172C26.5179 10.1172 26.7033 10.295 26.7182 10.5116C26.6912 10.6117 26.4816 11.2309 25.1716 12.6721C24.359 13.5656 23.5606 14.2932 23.5529 14.3002C23.1344 14.6799 22.9929 15.278 23.1964 15.8049C23.3998 16.332 23.9067 16.6797 24.4717 16.6797H28.1631C28.9182 16.6797 29.5303 16.0676 29.5303 15.3125C29.5303 14.5573 28.9182 13.9453 28.1631 13.9453H27.6929C28.9068 12.5161 29.4536 11.4526 29.4536 10.5399C29.4536 8.79912 28.0389 7.3828 26.3003 7.3828Z" fill="#73492A"/>
<path d="M21.4641 22.0726C21.4641 22.8277 20.8521 23.4398 20.0969 23.4398C19.3417 23.4398 18.7297 22.8277 18.7297 22.0726V15.9875C18.7297 15.4222 18.2696 14.9621 17.7043 14.9621C17.139 14.9621 16.6789 15.4222 16.6789 15.9875V22.0801C16.6789 22.8352 16.0669 23.4472 15.3118 23.4472C14.5566 23.4472 13.9446 22.8352 13.9446 22.0801V15.9875C13.9446 15.4222 13.4845 14.9621 12.9192 14.9621C12.3539 14.9621 11.8938 15.4222 11.8938 15.9875V22.0801C11.8938 22.8352 11.2818 23.4472 10.5266 23.4472C9.77145 23.4472 9.15942 22.8352 9.15942 22.0801V13.5351C9.15942 12.78 9.77145 12.168 10.5266 12.168C10.8823 12.168 11.2054 12.3049 11.4487 12.5276C11.9005 12.3349 12.3977 12.2278 12.9192 12.2278C13.8273 12.2278 14.6613 12.5514 15.3118 13.0895C15.9622 12.5514 16.7962 12.2278 17.7043 12.2278C19.7775 12.2278 21.4641 13.9143 21.4641 15.9875V22.0726Z" fill="white"/>
<path d="M26.2791 7.38388C26.2864 7.38388 26.2933 7.38281 26.3005 7.38281C28.0391 7.38281 29.4538 8.79913 29.4538 10.5399C29.4538 11.4526 28.907 12.5162 27.6931 13.9453H28.1633C28.9184 13.9453 29.5305 14.5573 29.5305 15.3125C29.5305 16.0676 28.9184 16.6797 28.1633 16.6797H24.4719C23.9069 16.6797 23.4 16.332 23.1966 15.8049C22.9931 15.278 23.1346 14.6799 23.553 14.3002C23.5608 14.2932 24.3592 13.5656 25.1718 12.6721C26.4818 11.231 26.6914 10.6117 26.7184 10.5116C26.7034 10.295 26.5181 10.1172 26.3005 10.1172C26.2933 10.1172 26.2864 10.1161 26.2794 10.1161C26.2722 10.1161 26.2653 10.1172 26.258 10.1172C26.0311 10.1172 25.8391 10.3108 25.8391 10.5399C25.8391 11.2948 25.227 11.9071 24.4719 11.9071C23.7167 11.9071 23.1047 11.2948 23.1047 10.5399C23.1047 8.79913 24.5194 7.38281 26.258 7.38281C26.2653 7.38281 26.2722 7.38388 26.2791 7.38388Z" fill="white"/>
</g>

</symbol></svg>